<mxfile host="app.diagrams.net" modified="2022-05-31T14:31:23.089Z" agent="5.0 (Macintosh; Intel Mac OS X 10_15_7) AppleWebKit/537.36 (KHTML, like Gecko) Chrome/101.0.4951.64 Safari/537.36" etag="z9tVuT3Gq3ZahbYq3vFY" version="17.5.0" type="github">
  <diagram id="K7qYaK5uncnXGMh0oNsu" name="Page-1">
    <mxGraphModel dx="2145" dy="682" grid="1" gridSize="10" guides="1" tooltips="1" connect="1" arrows="1" fold="1" page="1" pageScale="1" pageWidth="827" pageHeight="1169" math="0" shadow="0">
      <root>
        <mxCell id="0" />
        <mxCell id="1" parent="0" />
        <mxCell id="GNKtYmiSk1cu1asz-Mja-2" value="" style="shape=image;verticalLabelPosition=bottom;labelBackgroundColor=default;verticalAlign=top;aspect=fixed;imageAspect=0;image=data:image/png,iVBORw0KGgoAAAANSUhEUgAABt4AAAO+CAIAAAAMrPZkAAAAAXNSR0IArs4c6QAAAERlWElmTU0AKgAAAAgAAYdpAAQAAAABAAAAGgAAAAAAA6ABAAMAAAABAAEAAKACAAQAAAABAAAG3qADAAQAAAABAAADvgAAAADVRMikAABAAElEQVR4AezdB5zUZPrA8e2durD0pXeQjgKKioVDxV6x9zu983/2Oz3LWe/Uw95RsaHYQLEhiqhU6Z2l9112Wdjey/+BYMgmmdmZ7JRk5rfHh0vevEme9/sO8PrMm7yRtbW1EfwggAACCCCAAAIIIIAAAggggAACCCCAAAKBFYgK7O24GwIIIIAAAggggAACCCCAAAIIIIAAAgggcEiA1CSfAwQQQAABBBBAAAEEEEAAAQQQQAABBBAIggCpySCgc0sEEEAAAQQQQAABBBBAAAEEEEAAAQQQIDXJZwABBBBAAAEEEEAAAQQQQAABBBBAAAEEgiBAajII6NwSAQQQQAABBBBAAAEEEEAAAQQQQAABBEhN8hlAAAEEEEAAAQQQQAABBBBAAAEEEEAAgSAIkJoMAjq3RAABBBBAAAEEEEAAAQQQQAABBBBAAAFSk3wGEEAAAQQQQAABBBBAAAEEEEAAAQQQQCAIAqQmg4DOLRFAAAEEEEAAAQQQQAABBBBAAAEEEECA1CSfAQQQQAABBBBAAAEEEEAAAQQQQAABBBAIggCpySCgc0sEEEAAAQQQQAABBBBAAAEEEEAAAQQQIDXJZwABBBBAAAEEEEAAAQQQQAABBBBAAAEEgiBAajII6NwSAQQQQAABBBBAAAEEEEAAAQQQQAABBEhN8hlAAAEEEEAAAQQQQAABBBBAAAEEEEAAgSAIkJoMAjq3RAABBBBAAAEEEEAAAQQQQAABBBBAAAFSk3wGEEAAAQQQsChQffjH4smchgACCCCAAAIIIIAAAgiEvQCpybD/CACAAAIIIGBVYP7hH6tncx4CCCCAAAIIIIAAAgggEO4CMeEOQPsRQAABBBCwJCAzJr/44gs5deTIkdHR0ZauwUkIIIAAAggggAACCCCAQFgLMGsyrLufxiOAAAIIWBaYN2/evsM/MnXS8kU4EQEEEEAAAQQQQAABBBAIZwFSk+Hc+7QdAQQQQMCigEyZnDZtmnKyzJ2UXYsX4jQEEEAAAQQQQACBgAgcfkk4Y7aAWHMTBLwRIDXpjRZ1EUAAAQQQOCygTJlUMGTqJBMn+VwggAACCCCAAAI2F+At4TbvIMILWwFSk2Hb9TQcAQQQQMCigHbKpHIJJk5apOQ0BBBAAAEEEEAgIAIyfpMBG2O2gGBzEwS8EyA16Z0XtRFAAAEEENBOmVQ0mDjJpwIBBBBAAAEEELCzAG8Jt3PvEFuYC5CaDPMPAM1HAAEEEPBOwDhlUjmfL+G9c6Q2AggggAACCCAQKAHt+I0xW6DUuQ8CngqQmvRUinoIIIAAAgiIgHHKpMLCxEk+HggggAACCCCAgD0FtOM3xmz27COiCmcBUpPh3Pu0HQEEEEDAOwHtV+7GM/kS3mhCCQIIIIAAAgggEFwB4/iNMVtwe4S7I6ATIDWpA2EXAQQQQAABlwLar9yNlfgS3mhCCQIIIIAAAgggEFwB4/iNMVtwe4S7I6ATIDWpA2EXAQQQQAABcwHjV+7GenwJbzShBAEEEEAAAQQQCJaAq/EbY7Zg9Qj3RcAoQGrSaEIJAggggAACJgLGr9yNlfgS3mhCCQIIIIAAAgggECwBV+M3xmzB6hHui4BRgNSk0YQSBBBAAAEE9AKuvnLX14uI4Et4owklCCCAAAIIIIBA4AXcj98YswW+R7gjAqYCpCZNWShEAAEEEECgjoCrr9zrVDq8I1/CS2VjOSUIIIAAAggggAACgRRwP35j4mQg+4J7IeBGgNSkGxwOIYAAAgggcEjA/VfuRqNp06bJKcZyShBAAAEEEEAAAQQCI+DJ+I2Jk4HpC+6CgHsBUpPufTiKAAIIIIBAhPuv3I1ATJw0mlCCAAIIIIAAAggEUsCT8RsTJwPZI9wLAVcCpCZdyVCOAAIIIIDAIQFPvnI3SjFx0mhCCQIIIIAAAgggEBgBz8dvTJwMTI9wFwTcCJCadIPDIQQQQAABBLyeMqmQMXGSjw4CCCCAAAIIIBAsAU+mTCqxMWYLVh9xXwRUAVKTKgUbCCCAAAII6AU8/8pdf2ZEBBMnjSaUIIAAAggggAAC/hbwdvzGmM3fPcL1EXAvQGrSvQ9HEUAAAQTCWsDzr9yNTHwJbzShBAEEEEAAAQQQ8LeAt+M3xmz+7hGuj4B7AVKT7n04igACCCAQvgLefuVulOJLeKMJJQgggAACCCCAgP8ErI3fGLP5r0e4MgL1CpCarJeICggggAACYSrg7VfuRia+hDeaUIIAAggggAACCPhPwNr4jTGb/3qEKyNQrwCpyXqJqIAAAgggEI4C1r5yN0rxJbzRhBIEEEAAAQQQQMAfAg0ZvzFm80ePcE0EPBEgNemJEnUQQAABBMJOwNpX7kYmvoQ3mlCCAAIIIIAAAgj4Q6Ah4zfGbP7oEa6JgCcCpCY9UaIOAggggEB4CTTkK3ejFF/CG00oQQABBBBAAAEEfCvQ8PEbYzbf9ghXQ8BDAVKTHkJRDQEEEEAgjAQa8pW7kYkv4Y0mlCCAAAIIIIAAAr4VaPj4jTGbb3uEqyHgoQCpSQ+hqIYAAgggEC4CDf/K3SjFl/BGE0oQQAABBBBAAAFfCfhq/MaYzVc9wnUQ8FwgxvOq1EQAAQQQQCAcBJYuXVpcXCwtTUpKiooy+Q6vqKjI1CElJcVYXlNTU1JSIheUyw4fPtxYgRIEEEAAAQQQQACBBgo0fMqkEoAycXL06NENjIfTEUDAc4HI2tpaz2tTEwEEEEAAAQQmTJhgijBlyhTTcgoRQAABBBBAAAEE/CcgUybvuusuySr65BatWrV65plnoqOjfXI1LoIAAvUKmEwGqfccKiCAAAIIIIAAAggggAACCCCAAAJ2EPDVlEmlLbxx0g59SgxhJUBqMqy6m8YigAACCCCAAAIIIIAAAgggEDoCvnrLpFaEN05qNdhGwN8CvGvS38JcHwEEEEAAAQQQQAABBBBAAAEE/CLAW8L9wspFEQigAKnJAGJzKwQQQAABBBBAAAEEEEAAAQQQ8J2ALDPofqVBV28Jf+ONN3wXBVdCAAHrAjzQbd2OMxFAAAEEEEAAAQQQQAABBBBAAAEEEEDAsgCpSct0nIgAAggggAACCCCAAAIIIIAAAggggAAC1gVITVq340wEEEAAAQQQQAABBBBAAAEEEEAAAQQQsCxAatIyHScigAACCCCAAAIIIIAAAggggAACCCCAgHUBUpPW7TgTAQQQQAABBBBAAAEEEEAAAQQQQAABBCwLkJq0TMeJCCCAAAIIIIAAAggggAACCCCAAAIIIGBdgNSkdTvORAABBBBAAAEEEEAAAQQQQAABBBBAAAHLAqQmLdNxIgIIIIAAAggggAACCCCAAAIIIIAAAghYFyA1ad2OMxFAAAEEEEAAAQQQQAABBBBAAAEEEEDAsgCpSct0nIgAAggggAACCCCAAAIIIIAAAggggAAC1gVITVq340wEEEAAAQQQQAABBBBAAAEEEEAAAQQQsCxAatIyHScigAACCCCAAAIIIIAAAggggAACCCCAgHUBUpPW7TgTAQQQQAABBBBAAAEEEEAAAQQQQAABBCwLkJq0TMeJCCCAAAIIIIAAAggggAACCCCAAAIIIGBdgNSkdTvORAABBBBAAAEEEEAAAQQQQAABBBBAAAHLAqQmLdNxIgIIIIAAAggggAACCCCAAAIIIIAAAghYFyA1ad2OMxFAAAEEEEAAAQQQQAABBBBAAAEEEEDAsgCpSct0nIgAAggggAACCCCAAAIIIIAAAggggAAC1gVITVq340wEEEAAAQQQQAABBBBAAAEEEEAAAQQQsCxAatIyHScigAACCCCAAAIIIIAAAggggAACCCCAgHUBUpPW7TgTAQQQQAABBBBAAAEEEEAAAQQQQAABBCwLkJq0TMeJCCCAAAIIIIAAAggggAACCCCAAAIIIGBdgNSkdTvORAABBBBAAAEEEEAAAQQQQAABBBBAAAHLAqQmLdNxIgIIIIAAAggggAACCCCAAAIIIIAAAghYFyA1ad2OMxFAAAEEEEAAAQQQQAABBBBAAAEEEEDAskCM5TM5EQEEEEDAK4Evv/wyJyfHq1Oo7CyBSZMmOStgonUj0LJly3POOcdNBQ4hgAACCCCAAAIIIIBAwwVITTbckCsggAACHgmQl/SIyQmVxowZ44QwibFBAvyBbRAfJyOAAAIIIIAAAggg4JkAqUnPnKiFAAII+EhgR89LfHQl+16mY8ZUCY6W2reHvI8sfPpUsVHa670TZyCAAAIIIIAAAggggIB3Arxr0jsvaiOAAAIIIIAAAggggAACCCCAAAIIIICATwSYNekTRi6CAAIIIIAAAggggAACCCAQagK8KzzUelTTHt4SrsFw/CZvCXd0F5KadHT3ETwCCCCAAAIIIIAAAggggIC/BHj1sL9kA3hd3hIeQOyg3Yo/qkGj98WNSU36QpFrIIAAAggggAACCCCAAAIIhKhAaL9BO3zeKB0+LVX+IIZPe3lLuNP/6uVdk07vQeJHAAEEEEAAAQQQQAABBBBAAAEEEEDAkQKkJh3ZbQSNAAIIIIAAAggggAACCCCAAAIIIICA0wVITTq9B4kfAQQQQAABBBBAAAEEEEAAAQQQQAABRwqQmnRktxE0AggggAACCCCAAAIIIIAAAggggAACThcgNen0HiR+BBBAAAEEEEAAAQQQQAABBBBAAAEEHClAatKR3UbQCCCAAAIIIIAAAggggAACCCCAAAIIOF2A1KTTe5D4EUAAAQQQQAABBBBAAAEEEEAAAQQQcKQAqUlHdhtBI4AAAggggAACCCCAAAIIIIAAAggg4HQBUpNO70HiRwABBBBAAAEEEEAAAQQQQAABBBBAwJECpCYd2W0EjQACCCCAAAIIIIAAAggggAACCCCAgNMFSE06vQeJHwEEEEAAAQQQQAABBBBAAAEEEEAAAUcKkJp0ZLcRNAIIIIAAAggggAACCCCAAAIIIIAAAk4XIDXp9B4kfgQQQAABBBBAAAEEEEAAAQQQQAABBBwpQGrSkd1G0AgggAACCCCAAAIIIIAAAggggAACCDhdgNSk03uQ+BFAAAEEEEAAAQQQQAABBBBAAAEEEHCkAKlJR3YbQSOAAAIIIIAAAggggAACCCCAAAIIIOB0AVKTTu9B4kcAAQQQQAABBBBAAAEEEEAAAQQQQMCRAqQmHdltBI0AAggggAACCCCAAAIIIIAAAggggIDTBUhNOr0HiR8BBBBAAAEEEEAAAQQQQAABBBBAAAFHCsQ4MmqCRgCBMBPYWVC9fF9lvY3u2yKmW7NDf61V10Z8u6Wsptb8jE5NogekxZofoxQBBBBAAAEEEECgYQKM3Brmx9kIIIBAeAmQmgyv/qa1CDhUQJKMe4tq9hZVu4q/WUJU5ybRMVGRSoXa2kPZyUzDKfHRkZKXdJGxdHVtyhFAAAEEEEAAAQS8EGDk5gUWVRFAAIGwFyA1GfYfAQAQcIKA5BP/Mihp/p6K77aWm8Z7wzFJjeOP5CWlQkxUxLndEyQFOW1jmTrdUiZUntcjoXHc0Wqml6IQAQQQQAABBBBAoCECjNwaose5CCCAQLgJ8K7JcOtx2ouAgwVGtosb1sb8QeyMA1XGhkkOsskf+UrJS17RN5G8pFGJEgQQQAABBBBAwB8CjNz8oco1EUAAgdATIDUZen1KixAIZYFxXeKbJ5r8xfX9tvK88hpdy8ura5Upk62Soy7tnRDNdEkdELsIIIAAAggggIA/BRi5+VOXayOAAAIhImDyX/gh0jKagQACoSgQGxV5YY+EP14pebSFFdW10zfpn/X+anN5fnltcmykzJeUt0werc0WAggggAACCCCAgP8FGLn535g7IIAAAo4XIDXp+C6kAQiEm0CHxtGj2sUZW73lYNXSrKOreC/bV7kqu1ISkhP6JDaN5+86IxglCCCAAAIIIICA3wUYufmdmBsggAACDhfgP9cd3oGEj0BYCozpGC/PaBubLo91F1QcWn97V2H1jM1lsnFO94T0xtHGmpQggAACCCCAAAIIBEaAkVtgnLkLAggg4FABk/+2d2hLCBsBBMJHQBbgvqCHybsjy6pqv9pUJtnJj9aVVtVEjGofN6iV+bI54WNFSxFAAAEEEEAAgeAKMHILrj93RwABBGwuQGrS5h1EeAggYC7QJiX6pPR44zFZqvu5xUWFFbU9mseM7WxSwXgKJQgggAACCCCAAAJ+FWDk5ldeLo4AAgg4WoDUpKO7j+ARCGuB0R3i2qWYPKxdWRPRIjHq4l4JLHwT1p8PGo8AAggggAACdhJg5Gan3iAWBBBAwEYCpCZt1BmEggACXgnIOt0X9EyQR4SMP8lxkSzJbWShBAEEEEAAAQQQCJYAI7dgyXNfBBBAwOYCZv9Nb/OQCQ8BBBD4Q6BlUtSpHU2e2t6RX/175tHVuv+ozv8jgAACCCCAAAIIBE2AkVvQ6LkxAgggYGMBUpM27hxCQwABDwRGto/r2MTkse6Z28oPltV4cIEjVaprI1ZlV+4urPb8FGoigAACCCCAAAIIeCXgq5FbbmnNvD0VXt2ayggggAAC9hQgNWnPfiEqBBDwVEBeKDnGbD2ciuraLzaW1XpwmfLq2nm7KyYuLvo0o2x7PqlJD8ioggACCCCAAAIIWBJo+MhtV2H1R+tLn19SPHsHqUlLfcBJCCCAgM0EYmwWD+EggAAC3glICvK7rWWm50ieceHeihFt40yPSqEs5L1gT8XirMqyKk9ymK4uQzkCCCCAAAIIIICARwKWR24yVtuQWyVfJ+8o4Itkj6iphAACCDhFgFmTTukp4kQAARMBGaTK1Mis4hp5dVF6Y5PHumdtq5DnfUzOjIiQJ7inrCstqqxNjGEpb1MhChFAAAEEEEAAAV8KNGTktiSzclFmZaN4hm2+7BGuhQACCNhBgNSkHXqBGBBAwKLAnJ0Va/dXJcREXt4n8dLeicYkY2WNy8e6oyMjbh6YdH6PhDO7miykYzEgTkMAAQQQQAABBBBwIdCQkduwNrHX9Eu8pFdi2xSTb6Nd3JBiBBBAAAEHCJCadEAnESICCJgKSFLy5x3lUZERl/RKSE2MahQXaZpk3FlQLc/+mF5BKZTMppujHEIAAQQQQAABBBBouIDvRm4Nj4UrIIAAAgjYSIDUpI06g1AQQMBzAXmIW1nl5vTO8d2aHXlt7oC02D6pJq/Q/WlHeU6J+WPdckcSk56zUxMBBBBAAAEEELAgwMjNAhqnIIAAAmEiQGoyTDqaZiIQUgJFFbUfri2V16gPTIsd1a7OKjdnd09IitUnG6tqDr2SsoalbkLqU0BjEEAAAQQQQMAZAozcnNFPRIkAAggESYDUZJDguS0CCFgVkIzk+2tL88prWiRGje+mf01kcmzk+G4JxmvvLqz+dZe7x7qNp1CCAAIIIIAAAggg0EABRm4NBOR0BBBAIOQFSE2GfBfTQARCSkDmP368vmxvUbW0SlawiZO1bAw//VrE9Glh8lj3zzvLdxUeOpEfBBBAAAEEEEAAgQAIMHILADK3QAABBJwuQGrS6T1I/AiEkUBZVe27a0o2HaySNsvqN61TXP4NNiZdP5tSTpEHuj9ed2i6ZRiR0VQEEEAAAQQQQCBIAozcggTPbRFAAAGHCZhMLHJYCwgXAQTCQGDzwapVOVXrc6tkjKs0V/KM76wqHZ0e1zIxqllClGQqlR95aCizqGZJVqWpSkFF7ZsrS45tEzekdaw8+m1ah0IEEEAAAQQQQACBhggwcmuIHucigAAC4SZAajLcepz2IuBIgakbytSkpNoAeTpbFsOR3TuHJTdNODKDcmdB9btrDhW6+ikor521vTwlLnJwq1hXdShHAAEEEEAAAQQQsCzAyM0yHScigAACYShAajIMO50mI+A8gftHpHgYdLdmMY+e0MjDyko1Fu72iovKCCCAAAIIIICAe4HAjNxqGcO57waOIoAAAg4RcPmmNofET5gIIIBAQwWqqo8ObOVl7fwggAACCCCAAAII2FZAHa1Vk5u0bScRGAIIIOCNAKlJb7SoiwACoSiwNf/ost3b8/94mWUotpQ2IYAAAggggAACjhYorKjNKTnyTbK8eXxHwdFRnKPbRfAIIIBAOAvwQHc49z5tRyDcBb7cVLY1r/pA2dGpklvyqp9eVNSvRewZXU3W+A53L9qPAAIIIIAAAggESUDeJ/791vLskppyzfMu76wqaZUcfW73+DYp0UGKi9sigAACCDRUgNRkQwU5HwEEnCtwTvcE5wZP5AgggAACCCCAQPgIpDeOvmlgUvi0l5YigAAC4SPAA93h09e0FAEEEEAAAQQQQAABBBBAAAEEEEAAARsJkJq0UWcQCgIIIIAAAggggAACCCCAAAIIIIAAAuEjQGoyfPqaliKAAAIIIIAAAggggAACCCCAAAIIIGAjAVKTNuoMQkEAAQQQQAABBBBAAAEEEEAAAQQQQCB8BEhNhk9f01IEEEAAAQQQQAABBBBAAAEEEEAAAQRsJEBq0kadQSgIIIAAAggggAACCCCAAAIIIIAAAgiEjwCpyfDpa1qKAAIIIIAAAggggAACCCCAAAIIIICAjQRITdqoMwgFAQQQQAABBBBAAAEEEEAAAQQQQACB8BEgNRk+fU1LEUAAAQQQQAABBBBAAAEEEEAAAQQQsJEAqUkbdQahIIAAAggggAACCCCAAAIIIIAAAgggED4CpCbDp69pKQIIIIAAAggggAACCCCAAAIIIIAAAjYSIDVpo84gFAQQQAABBBBAAAEEEEAAAQQQQAABBMJHgNRk+PQ1LUUAAQQQQAABBBBAAAEEEEAAAQQQQMBGAqQmbdQZhIIAAggggAACCCCAAAIIIIAAAggggED4CJCaDJ++pqUIIIAAAggggAACCCCAAAIIIIAAAgjYSIDUpI06g1AQQAABBBBAAAEEEEAAAQQQQAABBBAIHwFSk+HT17QUAQQQQAABBBBAAAEEEEAAAQQQQAABGwmQmrRRZxAKAggggAACCCCAAAIIIIAAAggggAAC4SNAajJ8+pqWIoAAAggggAACCCCAAAIIIIAAAgggYCMBUpM26gxCQQABBBBAAAEEEEAAAQQQQAABBBBAIHwESE2GT1/TUgQQQAABBBBAAAEEEEAAAQQQQAABBGwkQGrSRp1BKAgggAACCCCAAAIIIIAAAggggAACCISPAKnJ8OlrWooAAggggAACCCCAAAIIIIAAAggggICNBGJsFAuhIIAAAmEg0DFjahi08lATaWnodXT49Gno9R0tQgABBBBAAAEEEEDAngLMmrRnvxAVAgiEoEDLli1DsFU0CYEQFeAPbIh2LM1CAAEEEEAAAQQQsJdAZG1trb0iIhoEEEAAAQQQQAABBBBAAAEEbCAwadIkG0RBCAggUL/ADTfcUH8lathSgFmTtuwWgkIAAQQQQAABBBBAAAEEEAi2AJPog90D3B8BjwT4o+oRk10rMWvSrj1DXAgggAACCCCAAAIIIIAAAggggAACCIS0ALMmQ7p7aRwCCCCAAAIIIIAAAggggAACCCCAAAJ2FSA1adeeIS4EEEAAAQQQQAABBBBAAAEEEEAAAQRCWoDUZEh3L41DAAEEEEAAAQQQQAABBBBAAAEEEEDArgKkJu3aM8SFAAIIIIAAAggggAACCCCAAAIIIIBASAuQmgzp7qVxCCCAAAIIIIAAAggggAACCCCAAAII2FWA1KRde4a4EEAAAQQQQAABBBBAAAEEEEAAAQQQCGkBUpMh3b00DgEEEEAAAQQQQAABBBBAAAEEEEAAAbsKkJq0a88QFwIIIIAAAggggAACCCCAAAIIIIAAAiEtQGoypLuXxiGAAAIIIIAAAggggAACCCCAAAIIIGBXAVKTdu0Z4kIAAQQQsLFA9eEfGwdIaAgggAACCCCAAAJ1BBi/1eFgBwHbCJCatE1XEAgCCCCAgHME5h/+cU68RIoAAggggAACCIS7AOO3cP8E0H67CsTYNTDiQgABBBBAwKYC8pX7F198IcGNHDkyOjraplESFgIIIIAAAggggMAfAozf/pDg/xGwnQCzJm3XJQSEAAIIIGBzgXnz5u07/CPfvds8VMJDAAEEEEAAAQQQEAHGb3wMELCtAKlJ23YNgSGAAAII2FFAvnKfNm2aEpnMnZRdO0ZJTAgggAACCCCAAAJ/CDB++0OC/0fAjgKkJu3YK8SEAAIIIGBbAeUrdyU8mTrJxEnb9hSBIYAAAggggAACigDjNz4JCNhZgNSknXuH2BBAAAEE7CWg/cpdiYyJk/bqIaJBAAEEEEAAAQTqCjB+q+vBHgK2EyA1absuISAEEEAAAdsKaL9yV4Jk4qRtO4vAEEAAAQQQQAABEWD8xscAAZsLkJq0eQcRHgIIIICAXQSMX7krkTFx0i49RBwIIIAAAggggEBdAcZvdT3YQ8COAqQm7dgrxIQAAgggYEMB41fuSpBMnLRhZxESAggggAACCCAgAozf+BggYH8BUpP27yMiRAABBBAIvoCrr9yVyJg4GfweIgIEEEAAAQQQQKCuAOO3uh7sIWBTAVKTNu0YwkIAAQQQsJWAq6/clSCZOGmrziIYBBBAAAEEEEBABBi/8TFAwBECpCYd0U0EiQACCCAQTAH3X7krkTFxMpg9xL0RQAABBBBAAIG6Aozf6nqwh4B9BUhN2rdviAwBBBBAwCYC7r9yV4Jk4qRNOoswEEAAAQQQQAABEWD8xscAAacIkJp0Sk8RJwIIIIBAcAQ8+cpdiYyJk8HpIe6KAAIIIIAAAgjUFWD8VteDPQRsLUBq0tbdQ3AIIIAAAkEX8OQrdyVImTgplYMeMAEggAACCCCAAAJhLsD4Lcw/ADTfWQKkJp3VX0SLAAIIIBBQAc+/clfCmjZtmpwS0BC5GQIIIIAAAggggIBGgPGbBoNNBBwgQGrSAZ1EiAgggAACwRLw/Ct3JUImTgarp7gvAggggAACCCCgCDB+45OAgLMESE06q7+IFgEEEEAgcALefuWuRMbEycD1EHdCAAEEEEAAAQTqCjB+q+vBHgIOECA16YBOIkQEEEAAgaAIePuVuxIkEyeD0lncFAEEEEAAAQQQEAHGb3wMEHCcAKlJx3UZASOAAAIIBELA2lfuSmRMnAxED3EPBBBAAAEEEECgrgDjt7oe7CHgDAFSk87oJ6JEAAEEEAiwgLWv3JUgmTgZ4M7idggggAACCCCAgAgwfuNjgIATBUhNOrHXiBkBBBBAwL8CDfnKXYmMiZP+7SGujgACCCCAAAII1BVg/FbXgz0EHCNAatIxXUWgCCCAAAIBE2jIV+5KkEycDFhncSMEEEAAAQQQQEAEGL/xMUDAoQKkJh3acYSNAAIIIOAvgYZ/5a5ExsRJf/UQ10UAAQQQQAABBOoKMH6r68EeAk4SIDXppN4iVgQQQACBAAg0/Ct3JUgmTgags7gFAggggAACCCAgAozf+Bgg4FwBUpPO7TsiRwABBBDwvYCvvnJXImPipO97iCsigAACCCCAAAJ1BRi/1fVgDwGHCZCadFiHES4CCCCAgF8FfPWVuxIkEyf92llcHAEEEEAAAQQQEAHGb3wMEHC0AKlJR3cfwSOAAAII+FLAt1+5K5ExcdKXPcS1EEAAAQQQQACBugKM3+p6sIeA8wRinBcyESOAAAIIIOAfgaVLlxYXF8u1k5KSoqJMvr0rKioyvXNKSoqxvKampqSkRC4olx0+fLixAiUIIIAAAggggAACDRRg/NZAQE5HIOgCkbW1tUEPggAQQAABBBBwhMCECRNM45wyZYppOYUIIIAAAggggAACwRVg/BZcf+6OQL0CJlNC6j2HCggggAACCCCAAAIIIIAAAggggAACCCCAQAMFmDXZQEBOR8C6wMHS7C25KzMLtmYX7TpQklVWVVJRVVpdW2X9ipyJAAIIIIAAAggggAACCCCAAAII+E0gOjImLiYxISapeVLrtJQObRp36Zo6oFlimuUbkpq0TMeJCFgUOFCSuXT3j6uy5uYW77V4CU5DAAEEEEAAAQQQQAABBBBAAAEE7CGQmtz2mNYnDGl/SvOkNt5GRGrSWzHqI2BdIKtw+/cZkzfmLLV+Cc5EAAEEEEAAAQQQQAABBBBAAAEEbCnQo+WQP/W8pnWjTp5HR2rScytqImBdIL9s/6yNHyzfM7s2goWnrDNyJgIIIIAAAggggAACCCCAAAII2FkgMiJycPtTTut+ReOEVE/iJDXpiRJ1ELAuUFVT8fPmqXO3T6+srrB+Fc5EAAEEEEAAAQQQQAABBBBAAAEEHCIQGx13fKdzT+52SUxUnPuQSU269+EoAg0SKCrPe3/ZY7vyMhp0FU5GAAEEEEAAAQQQQAABBBBAAAEEnCaQ3rTXFYPvT4lv6iZwUpNucDiEQIMEZOnt95Y+Ko9yu7pKVGRUp2Z95UUM8hYGWdkqKa5xfHRidFSMq/qUI4BA0AUmTJhgGsOUKVNMyylEAAEEEEAAAQQQCK4A47fg+nP30BOorqkqry4tqSg4UJIlK2rIchrbD66tqa1x1dKmiS2vHPJAm0adXVUgCeJKhnIEGiSwbt/CqSufqawuN71K77RjB7Q9sXuLQYmxKaYVKEQAAQQQQAABBBBAAAEEEEAAAQTsJiATqpKiGiXFNmqR3E7mWo3uckFpZdGm/ctX7v1lffYiY7R5pTmvL7jn4gF39ml1nPGolJCaNGWhEIEGCUhe8sNlT5iueNMtdeDpPa9q36R7g27AyQgggAACCCCAAAIIIIAAAggggIANBGTS1TFtTpBfu/M3zsx4b0vuSl1QFdVlkiS5fPD9fVodqzsku1HGIkoQQKAhAvIc9ycr/2fMSzZNTLt++GPXDX+UvGRDeDkXAQQQQAABBBBAAAEEEEAAAQRsKNC+SQ8l7yEPcevCkyTJJyufySzcpiuXXVKTRhNKELAuUFh+UN4vKV8I6C7RuXm/W0dO7Jo6QFfOLgIIIIAAAggggAACCCCAAAIIIBAyAvK06C0jn5WlNXQtklTJe0sekeWCdeWkJnUg7CJgXaCqpuKDZY8b1705Nn3cdcMeTY5rYv3SnIkAAggggAACCCCAAAIIIIAAAgg4QSAlrolMnxze4U+6YCVhImkTSZ5oy0lNajXYRqBBAj9vnrorL0N3CclLntP3Ftbd1rGwiwACCCCAAAIIIIAAAggggAACoSogaZBz+91qzE7uzNsgyRNtq0lNajXYRsC6gOT+f9s2XXe+PMd9Vu+bdIXsIoAAAggggAACCCCAAAIIIIAAAiEvML7PzcYnu+dun15Qlqu2ndSkSsEGAg0SmLXxA92cZFn3ZsKgfzBfskGsnIwAAggggAACCCCAAAIIIIAAAs4UkJTIhMH/1K2KU1ldMWvTB2qDSE2qFGwgYF1AFplavme27vwL+t/G+yV1JuwigAACCCCAAAIIIIAAAggggED4CMh7J8/vf5uuvct2/5RVuF0pJDWpw2EXASsCMzPerY2o1Z4pi3GzHrcWhG0EEEAAAQQQQAABBBBAAAEEEAhDAVmzu2vqMdqGSwrl+4zJSgmpSa0M2whYEThQkrkxZ6nuzLE9r9aVsIsAAggggAACCCCAAAIIIIAAAgiEoYAxSSKJlAMlWUJBajIMPw802ccCS3f/pLti77Rj2zfpritkFwEEEEAAAQQQQAABBBBAAAEEEAhDgfZNekiqRNfwZXsOpVNITepY2EXAa4FVWb/pzhnQ9kRdCbsIIIAAAggggAACCCCAAAIIIIBA2AoMaDta1/aVmb9KCalJHQu7CHgncLA0O7d4r/acqMioHi0Ga0vYRgABBBBAAAEEEEAAAQQQQAABBMJZoHuLwZIw0QpIOiWvNLtOkfYw2wgg4InAltyVumqdmvVNiE3WFbKLAAIIIIAAAggggAACCCCAAAIIhK1AYmxKx2Z9dM3fnLsysra2zrLCuhrsIoCAe4EZ615fsONrbZ0/9bxmdJcLtCX22S6uqM0urs4rqykory2uqKmsjqiqqa3h7wD79BCRIIAAAggggAACCCCAAAIIIOCxQFRkRExUZGx0RHJcVOP4yKYJUWnJ0clxkR5fIKAVf9n62cyMd7W3HNFxfIx2n20EEPBWILtol+6U1o066UqCvltUUbv9YNWu/CrZCHowBIAAAggggAACCCCAAAIIIIAAAj4RkMlGFdW1FdURxRXV2UVHLpkSF9mhSUynZjGy4ZO7+OoixoRJTtEuUpO+4uU6YSqgLHWvbXzzpNba3eBu55fVrNpXmVVYHdwwuDsCCCCAAAIIIIAAAggggAACCARGQKYlrc+plF+tG0Uf0yq2SYJdXueYmtRGJ5BbkklqUmfCLgLeCZRVlehOSIprrCsJym5pZe2a7EqZLBmUu3NTBBBAAAEEEEAAAQQQQAABBBAIroBMVJJfMn2yX1psYmzwZ1AmxjbSgZRXlZCa1Jkc2a2NqC0sOyBZp0bxTY1wUqmgLDc6KjbZHkko8zZQGhCBiqpS3X3ioxN1JQHera6NWJ9duTG3sromwHfmdggggAACCCCAAAIIIIAAAgggYC8B5Q1vPVJje6fFRgc1Pxkfo0+YlFeX+iU1ufXA6lV7f7XcD7KU+Fl9boqKjJYrLNk9a3feRtNLySLIp/e4Uqmmq/D1+jerqit0hbLbMqX9qE7nGMuVElkOJCNn8bLdP2UV7cgvzamqqVTKY6Pj0lLSe7Yc2jtteNsm3SIjIiVx+ebv93VPHXh237+4uppSvjt/U0bOkm0H1kgqs6gir6yyODY6Pim2keQ0U5PadmsxqEfLwU0SWpheZNHO7zILtpoeUgujoqIlESZdK1eT1smv6Eh3ferDrtmYs3TdvoVqJK42oqNiJIcbGxWXEt9UWpqW0qFFcjtXlZ1YXl2rn5YoTQ5iQ8qqaufvLM8tISsZxE7g1ggggAACCCCAAAIIIIAAAgjYSECmLsnz3bIu7sj0+ISYoKUnY6JidSjVNVV+yaFIHkpSZttyV+8r2qm7pYe743pdFxV9KDVZUytv8dy5My9DNoznSgPO7H2DsTwuOmFf4Y6tB1ap649HRkamN+2Vmqx/pl05V7KQv2394vdd3+eX7TderbK6Yk/+Zvk1e/PHTRPT+rUelVeanVu8V1KTxspqyZbcVT9sfG9XXoZaIunINo27SGZzf/EeudHegq2rs+ZKYAPbnjSm22XG5+0TYpKk1TvzNhgXWlGvqduQhdh7px17XMcz2zfprjuk7PqwayRy6eWsgu3bD641vZerwuZJbU7ofN6Q9qcaP5GuTqHcQwFZenvejvKSSpdr3URGRrRIim7TKKpJfJSs2BUfEykrecl6XvwggICHAhMmTDCtOWXKFNNyChFAAAEEEEAAAQSCK8D4Lbj+3N3fArIMTlVNbXlVbXFFbX55TWZhzf6S6loXWQGZxvTTlrJRHeNlIW9/B+b59f2SmuzQtKf8kiBkzuMXq1/QRdO9xeBRnc6WQkkIVtZUFFfky9zA1ZlzK6rLdDVld3iHP8kvmXg4ZfmTkiLUVZi3/ct2TbpJak9XLrMppWTHwfVvL36gsrpckmhXD3moR8shumrKrrxx86Pl/5FEofZoerPekj5r27hrk4TUvNIcSY8u2/PTmqz5kpScu22atqZxW6bRzVj7uiQ61UMyTfKsPjce02a0MsdTQlq089tZmz6UDUmeLt/z86rM387u85dhHU5XT5GNAW1PlF8yQ/OzVc8t3zNbe0i2j+98Xvsm3Uoqi2RW6cacJUUV+VJYWlkkcS7fO/u49LPG9rxKUrS6s3zYNdKP8kuuP2vjBz9vmaq70dieV3dvMUg6V1aJkamjEr9MSlXqHCjJ/HLtKyv2/nz10IcSYpJ1J7JrWWBPQfWi3eWuHuJu2yg6vWlMq5SouODO3rbcPE5EAAEEEEAAAQQQQAABBBBAAIG6AjLZSP4zX341io+QRW96tji0YPe+opqdeVV7zVbElclMP28tG94+vl3jQzMC7fDjl9Sk2rCh7U/7au1rVTV1Uootktsas4Rn9rrh+4zJ2nSeehHZkIepLx9037tL/i15Om25bE9b82KrlHSZjagrl92OzXpLNnDp7lnyILbxjkp9yTZ+vvq5cs3rAiWdd8nAu2TuoXpBWXBZfvVKGy5PQ3+55pWc4t3qIeOGXEri1E4kTIlrcsOxT8qDzGpleaZbEoutGnV6b+kjMvFTyuV3aYgkQI2TQGWW5ZB2pxhTk52a9enT6rhD10w/Q54T/2rdayv2zjm0GxEh6c4FO2asz14oaJK6VQp1v/uqa+SyklE1piZbJreXxK5yU6GU5+g/XP6kTDVVw5DE8TuLH/rzcU9L4lgtZMOygOQl5Tlu09NbpUT3axXbPNFGX4mYxkkhAggggAACCCCAAAIIIIAAAgg0UEDSlB2aRMuvA6U1q/dVZhfpn0KuqomQBMKo9Pi29shO+j1bIWk4T0zlxZHn9rv1uPQzXFWW3KLpK/xkKuUHyx4vrSw0PbF1o45SLm+KND0qz0pPXfG0Ni8pK97ccOwT2ryk9sQuzftff+zjrl4NKTUlJzh15dPavKQUnt33Fm1eUr2gTCo8uesl6q5syCRQ0ymZgqOtZtyWChcPuFOyjdpDMtnz/WWPFZYf1BZqt33VNfIUufayptutG3U6p4/+vZzytLuaTjU9i0IPBeQ57t93m+Qlk2IjT+wUP7pTPHlJDyWphgACCCCAAAIIIIAAAggggEBoCEgqQMkJSHLA2CJ57FKSCcbywJf4PTUpL7LzvFWn97jKdDls91c4WJr90Yqn1OeFtZWVFbSNzzVLHXnW+KPl/9WtYTK+z42u3tKoXLZxfPMrhzxgekGpMGvTBxuyF2sDkAeo+7UeqS3RbsuD7bq83ncZ78hLKrV1ZNt0qR9dHdmVtYN0K8zI2jsyV1GZmGms76uukVVujBc3lnRrMdA4hXPBjq+NNSnxSkDWvZH3S8qXHrqflslRp3ZNSEuxywxtXXjsIoAAAggggAACCCCAAAIIIICAvwXkSUpJDrRI1mfnJI0gyQRJKfg7gHqvr4+s3hN8UaFOslbeVPjjpg+Vy8rsv/6tR7m5hcxY1GXflMqb96+QNWeMJypJPVmvxXjok5UTdYveyPslB7Y92VhTV9K2cZdj08fpCmX3YOm+37Z9oSvv22qErkS7Gx+TJG+T1JbIvMtv10/SPbcuz3Rr67jaloTpCZ3P1x3deXD9/B1f6Qpd79a5kYdd42F4clN5ylt365ziXboSdr0SqK49NA3buO5N1+YxozslyCo3Xl2NyggggAACCCCAAAIIIIAAAgggEGICkhw4sVNCl+b6lzpKMkFSCpJYCO6PSc4uwAFtzl0hjx6rN+3ecpC6bdyQOYZXDXnAdO2UX7d+LgteG08xLdmdv3HT/mW6Q8M7jNWVuNodWne9GqXarI0fGucnHnkdpKsLHXohZh/dwczCbaszf9MVerjbt/UI4xTLRTu/1+U6PbyaV13jyTVT4pvqqsnT9K4extfVZNdUYH12pSywpTskecnBbeNYd1vHwi4CCCCAAAIIIIAAAggggAAC4SkgKYIhbeOM2UlJKUhiIbgmQU5NyvPUWYXbtQQ9Wgy5fvhjbl6DKLMmLxl4p+naKZ+ven5f4Q7t1VxtG58jlgv2aDnUVX1ducz+69Ssb0x0nFour7xcu2++uqtsSKimczy11dKb9tLuKtuW38AoS4HLc9O6C8qK2FtyV+oK69210DX1XnNf4U5dnZio2FjDMuK6Ouy6EiitrN24X/83iDzHPbDN0U+mq3MpRwABBBBAAAEEEEAAAQQQQACBsBIY1CbO+GT3xtxKSS8E0SHIqckVe+ZUVtdZvkOSkl1TB7gX6dlymLyV0linorpMlsSR5aqNh7QlRRX5qwzTEts17i5LaWurud++6bj/nNHrerWO5P50DZFDqUlt1AquNpolpslj3bqj8rrJqhp9yklXx9WurK5jPLRy7y/GQvcl1rrGzTXlWXVZ90ZXQd7FKdlJXSG7Hgqsya7UzbuWV9uO6BDPfEkPAamGAAIIIIAAAggggAACCCCAQPgISLpgZId43ao41TURkl4IIkIwU5OllUVztn5qrfEndrnwmDajjefmlmROXfmMZMGMh9SSHQfXGp+8bpmifw2iWt+TDWPSTc5KimvkybkJhtSkZDmzCrd5cq6xTqP4ZsbC3OK9xkI3JQ3pGleX3XZwTVmVPmvs/l2cri5FuQjIQlrbD1bpKIa1i+P9kjoTdhFAAAEEEEAAAQQQQAABBBBAQBGQpMHQdvpHLSW9kB+81bqDk5qU1wvKqx5fnn+Htykz7Sfpgv63yYo02hJlOyNnibqujvGolBwo2Wcs92rKpPH0gvIDxsKk2MbGQmOJMTUpdYrK84w1PSlJjtO/z1HOyis7+jZP9xfxSdcYb7Fu36L3ljyiK5fpsSM6jtcVsuuhwOp9+u80ZDFu1uP2UI9qCCCAAAIIIIAAAggggAACCISngKzZnZYcrWv7KkOSQVfBf7v61Xn8dyf1ygt2zJBf6q7lDXn0+4rB/3p5/u3FFfm6i8zZ8km7Jt1cLUEj717U1Zdd4wotxjpuSgpNU5NxHqUm42ISjVeWp86NhZ6UmOZYC8pya2prosxWKtde01ddI9eUV4hKyrW8ujS/LHfHwXWrMn/VTWXt1KzPJQPvNn1nqDYktk0FiipqswqrdYf6t+LReB0JuwgggAACCCCAAAIIIIAAAgggoBfo3zr2py11sgqSZCiuqE2Oi9RX9f9+EFKTPmxU08SWEwb94+3fH5A1W7SXlQWpP1018ZaRE7WF6nZe6X51W93QJc7Ucg83TLN+8Z4t8OJmzR8P766tFm+W6JS8ZGV1mfGlltoTfbvtZuJq19RjBrc7dWDbk8hLWjY3PsrdtlF088TgTIK23ApORAABBBBAAAEEEEAAAQQQQACBwAtIAkHSCHvrznnanlfVNy0Ic56CkMuQZ3gfGfv5NUMfTkvp0HD9zs37ndXnJuN1yqtK31/6WFlVifFQYmyKsdD4GkRjHTclpitxV9ZUuDlFPVRRVapuqxstktuq215tmE63jI6M8SQv6cOukaWK+rYaaYw8JiruvH5/HdTuZPKSRhzPS3bl18nFy4npTZ39NYPnbacmAggggAACCCCAAAIIIIAAAgg0UMCYRtiZp081NPAWHp4ehNSkRCb5qR4th9x83FONE1I9DNRNtWPTxw3v8Cdjhf3Fe6avedlY3jyplbGwpKLQWOh5Scvk9sbKpjlHY7VSw+IwUsf0gsZzjSX5ZSZzQpM8e7RcruarrhnW4fTLBt2b3rSXLsKqmoqpK/9XU1tn2rCuDrvuBWSKtTzQra0TGRnROiU4f5a1YbCNAAIIIIAAAggggAACCCCAAAKOEGiVEiXJBO2PpBpKKutkG7RH/bcdzHSGzF4c0+1Sn7RtfJ+b5d2FHl6qaWKasWZ20S5joeclpgt8F5Qf9OQK5ZX6dasTYxslxzXx5FxjHXmtpLGwVaN0Y6GbEp90jTzkfvGAO40PmMtq5rM3f+zm7hxyL5BdrE/stkiKjo2u+zeK+0twFAEEEEAAAQQQQAABBBBAAAEEwlggLjqyRZI+K7ivSJ9wCICQPogA3FJ7i+4tBmt31e2c4t1rsuapu/VuREfFTBj0zyYJLeqtKRWMU/mkcE/B5oZM5TOd5JjjQbpTHiQvrizQhZ2WYjIHU1fH1a5patKVs6uLSLmrU7zqmuZJrSVrbLyLrFO04+B6YzklngjkldXoqrVpFOQ/yLp42EUAAQQQQAABBBBAAAEEEEAAAZsLtE7Rr9NtTDgEoAlBzmg0S0xrntTG2E5ZROXXrV8Yy92UyBLbVwy+PzY6zk0d5ZC849I4xbKyujyzYFu957qqIJMcu7cYpDsqMzHrXV1HphAa68gj6rpLeb5rnP4pL5rs2+o4z6+g1PRV1wxud0q/1qN0d5dleT5Z+Uy52ZtAdTXZNQoUlOvnVzeJD/IfZGOQlCCAAAIIIIAAAggggAACCCCAgJ0FmiTokwmFhoRDAOIP/tIZQ9ufGhNVZwGggvIDa7MW9G9zvLftb9ek2/n9bpu68pl6TxyePm77wXW6akv3/ChX0BW62i2tLEyISdGu5TKu13Wb592mzTPKjMgdees6Nevr6iJSbpw82LpRpwFtTnJziptDB0qyMnIW6yqM7DTeNP+rq2bc9VXXnNfv1p15G3TTOQ+WZn+59lV54tt4X0rcCxRX6GdNJsfxNLd7M98fra6uXrFixfz587dt27Z9+/a8vLzi4uKqquC8M9j3zeOKrgV69uxpenDIkCGm5RSGkkBMTEzS4Z82bdp06NCha9eugwYN6tWrV3S0/tvmUGo1bUEAAQRCRoDxW8h0pbcNYfzmrVgo1Wf85r43UwzJhCJDwsH9FXxyNCipyTpzvk7qerGuJb9u+UyerU41m02pq2ncHdD2xMzCbb9u/dx4SFsi8/jkmWLdBMOlu388rfvl8p5HbU3TbUmrvbnon9cO+7f2OW5JKcoMQbmI9pQ1mfPcpCYlj7kq8zdtfdke2/NqbcZTd9T97tzt02VCorZO4/jmY7pdpi1xu+2XrhHSi465/e3fH6iNqHP9FXvn9EwbNqDNaLchcVAvUGl480N8DKlJvZKf9svLy+fNmzdnzpzffvutoED/KgY/3ZTL2kogIyPDVvEQTCAF5OsH+YMvP1lZWcuXL1dunZycfOKJJ44dO3bEiBHkKAPZHdwLAQQQ8FCA8ZuHUCFcjfFbCHduvU1j/OaeKM6QTDAmHNxfwSdH/Z6arK2bKZOgq2vcTSz6fdf383fMkGqpSW21LayurZJf5VWl2kLT7bE9rs4q3L4xZ6npUaVQ5mnKuylfmX9HRXWZWk2e6f52w9sX9P8/tcR0I680Z9Ki+/JKs41HT+t+haQa5TrqoSW7Z53Y9cJG8c3VEu3G6qy5soy4tqRL6jE9Ww7Vlsh2jfzP8KNL88nxkspCXWJUCsf1vt64EI1yMV91jek7OnWFXVMHjOp87txt03Tt+HLNKx2b9jJdmEhXk11VoKqmToZXymOiSE2qPP7akH/Spk+fPmnSpJycHOUenbr36T90RPvO3Vu1TW/ctHl8YmJMTJ0J4P4KhesigECQBKqqKsvLSstKSnKzM7Mzd2/LWLNm2cK83JxvD/907NjxlltuGTNmTFSU/rmYIMXLbRFAAIFwF2D8Fu6fANqPQEQE4zf3n4JYQzLBmHBwfwWfHPV7arKy5mieTom4tKrINHRJZi3e9cOMda8pR1OT22iryePAMscwvyxHqkVFuntySqYcXjrg7lcW3KnL+mmvJtvyxsnz+//t4xVPa8sltSdr6Zza/XJtoXZ73b5F09a8WFyR3yyxVYphEe3GCamXDbx3yvInq2oqlbMk9fnN+kmXDLjbOBFSLvLDxve1F5d5lxMG/UNbomxX/3E17SH1FkphUUX+R8v/o82KyismT+95lZs5ib7qmgpNKlaNUBuJUnh6jyu37F8hc1rVOrIhz7zLA/g3Hvuk+z7VnsK2ITMZYfjLBCRfCtTU1MycOfPVV1/ds+fQFwl9Bx83eOTJxwwbJelIX96GayGAgO0F5OuHmJTY5JTGqWmte/QbdPxp42Vkkrlr29plC5fMnb1907p7771XHhm79dZbR44cafx33/btI0AEEEAgdAQYv4VOX9ISBBomwPjNvZ8xmWBMOLi/gk+O+jc1KcnByuoKXaCb9i/fW7C1beMuSrmk2GQG4rYDa3/Z+qm8KlGtrJs1qcwHlKeVJX1Z7yoxCbHJsiTOqwvucr/QyjFtRkdFxkxb85K8OFK97+zNH8v7H+XJ7vRmUfxJPgAAQABJREFUvdVCmaK4LXf1ol3frc6cK4XySsqrhzxk+uh3r7RhcusPlj1RVXOk4TKPUrYvHnBXXHSCesHiioJ3Fj94oCRTLZFU6XXDH0sye5w8s2C7Wk3d2JizpH/rUZLRyy/bL2vpSAJUNtSjTRNbSpK0Q1Pzd6JJNR92TWbBVvW+6oZ08aB2Y9Rd2ZCZqhcPvOvleberMspR0f52/Vtn9blJW5ltBGwiIHMkJdewcuVKiafPwOHnXHGTTJa0SWyEgQACQReQ/GPb9C7y69RzLpME5VdTJmVkrL/ttttOPvnkRx55RN5LGfQICQABBBAIQwHGb2HY6TQZAc8FGL95bhWwmpHaZVt8dVdJRx4ozdqTv0ne+ah7n6N6i+S4xrKqdVlVSWHZAeOzyQkxyQ+e9rFUlnSbXGH9voW/75qpPCMsGa4+rY7r1/r4rqnHJMamqBc0bmzIXvz+skelgfL2xhO7XGisoJTIfMxPVz27JfdQ6kH7I09hpya1loW/i8rzc0v2FpYflKOSCjw2/YyxPa/S5hm1ZynbOcW7Z6x7ffP+Feqh5kmtu6UOlPyjpE335m+RB73VZ8lleuPxnc+VN0LqlheXhGluSdauvA0zM95TK6sXlA2hkNbJc+7awviYpCHtTjml+wRTHB92jTxcL72cVbD92w1vyQxQbQyyLX/apUU9Ww5JiWsmeVL16IIdM2ase0PdVTekT4e0P7V32rFqiVM27vtuvC7UJ8YdeiOB/34+XVOiu/hF/fivXx2Jb3blXXKSl8zNzZV05IXX/rV734G+uS5XQQCBEBWQf5RXLZ77+eSX9+3ZKYvkPPvss+3atQvRttIsBBBAwKYCjN9s2jGEhYBdBRi/BT7DYMyi+CU1KS+L/Nos/eT5R1GmJd468lmp//GKp4wLxSjXkTmPlw682/01Za0beWjafWpSucLu/I3L98xZlfmrMcumVJBsqSTaTu52qaQX3d9UPbo+e9Gy3bM37V9mmliUavIAeN9WIyTXaXrN95c+JldQr2a6ERUZFR0VmxiT3Cyplay307XFgI5N++hSnNoTfdg1P2+eOmvTB9qLm27LzM2/jDi6Zrqkod9d8m/TN4FGR8U8Olb/MkrTa9qq0PiHitSkrTrIWjDy79PUqVMnTpwoKzmOOeuiC679K++RtCbJWQiEoUBZafFb/3t41eJ5jRs3fuqpp4YNGxaGCDQZAQQQCLwA47fAm3NHBEJGIJzHbyGbmrTVp1Oykx2b9encvJ8nUcnETHk8Ob8sV6ZSFpTnyhzDw7M7m7ZIbtuxWW9r70OUJ9blmWV5S6bMu5S8Z2REVKP4ZvIrNbmtZGAjI1jAxJOesW8dUpP27ZsGRCZvlpQVb2Lj4q+89R/HnjS2AVfiVAQQCEcBecfZjCmTvv10sqzZ/fLLL5OdDMcPAW1GAIGACzB+Czg5N0QgpATCdvxmh9Skf981aYfP6UldL/Y8DEk+tmvSXX55fkq9NeWxa3n2vN5qVEAAAZsITJs2TfKSSSmN73zsRVmA2yZREQYCCDhIQBbpllfTprXtMPn5R++5554PPviAJ7sd1H2EigACThRg/ObEXiNmBGwlwPgtiN0RFcR7c2sEEEDAbgLz5s174oknYmPj/vqvp8lL2q13iAcBZwmMGDNu3EVXFxQU3H777SUl+tcEO6stRIsAAgjYWYDxm517h9gQcJYA47eg9BepyaCwc1MEELCjwMaNG2XdG3lR0bW3P9i1d387hkhMCCDgKIGzJ9x4zLBRW7ZsefDBB+XvFkfFTrAIIICAMwQYvzmjn4gSAecIMH4LfF+Rmgy8OXdEAAE7Csi7RR577LHS0tLzr75lyKgxdgyRmBBAwGkC8mTQdXc81Kpd+s8//7xgwQKnhU+8CCCAgN0FGL/ZvYeIDwEHCjB+C3ynkZoMvDl3RAABOwp8/fXXa9eu7dS9z6nnXGbH+IgJAQScKZCYlCJfeEjsL730kvwntDMbQdQIIICATQUYv9m0YwgLAYcLMH4LcAeSmgwwOLdDAAE7ChQVFb344osS2SU3/F2+JbNjiMSEAAKOFRgw/ISOXXtlZGTMnj3bsY0gcAQQQMB2AozfbNclBIRACAkwfgtkZ/Jf4IHU5l4IIGBTgTfffPPAgQPDR5/epVc/m4ZIWAgg4FiByMjIsy+/UcJ/9dVXq6urHdsOAkcAAQTsJcD4zV79QTQIhJYA47dA9iepyUBqcy8EELCjgKyf+8knn8iq3MpDl3YMkZgQQMDhAn0HHyfvi9i+fTtvnHR4TxI+AgjYRYDxm116gjgQCF0Bxm8B61tSkwGj5kYIIGBTgW+//baiomLQiJOatUizaYiEhQACDheQL96HjDpZGvHDDz84vCmEjwACCNhCgPGbLbqBIBAIaQHGbwHrXlKTAaPmRgggYFOBGTNmSGQjTznTpvERFgIIhISAfPEu7ZgzZw7PdIdEf9IIBBAIsgDjtyB3ALdHIDwEGL8Fpp9JTQbGmbsggIBNBXJzczds2CBLsPXsP9imIRIWAgiEhEDb9C5NU1sWFxfLejgh0SAagQACCARNgPFb0Oi5MQJhJsD4LTAdTmoyMM7cBQEEbCqwcOFCiUzyklHR0TYNkbAQQCAkBOSZoH6HJ04uW7YsJBpEIxBAAIGgCTB+Cxo9N0YgzAQYvwWmw0lNBsaZuyCAgE0F1q9fL5F17d3fpvERFgIIhJBA5579pDVbt24NoTbRFAQQQCAIAozfgoDOLREIVwHGbwHoeVKTAUDmFgggYF8BJUcgE/XtGyKRIYBAqAiktWkvTdm1a1eoNIh2IIAAAsERYPwWHHfuikBYCjB+C0C3k5oMADK3QAAB+wrs3r1bgktr28G+IRIZAgiEikBqWmtpyt69e0OlQbQDAQQQCI4A47fguHNXBMJSgPFbALqd1GQAkLkFAgjYV6CwsFCCS05pbN8QiQwBBEJFIDEpWZpSUlISKg2iHQgggEBwBBi/BceduyIQlgKM3wLQ7aQmA4DMLRBAwL4CSo4gPjHRviESGQIIhIpAXMKhv2pITYZKf9IOBBAImgDjt6DRc2MEwk+A8VsA+pzUZACQuQUCCNhXoKqqSoKLiYm1b4hEhgACoSKg/FWj/LUTKm2iHQgggEAQBBi/BQGdWyIQrgKM3wLQ86QmA4DMLRBAAAEEEEAAAQQQQAABBBBAAAEEEEBAL0BqUi/CPgIIIIAAAggggAACCCCAAAIIIIAAAggEQIDUZACQuQUCCCCAAAIIIIAAAggggAACCCCAAAII6AVITepF2EcAAQQQQAABBBBAAAEEEEAAAQQQQACBAAiQmgwAMrdAAAEEEEAAAQQQQAABBBBAAAEEEEAAAb0AqUm9CPsIIIAAAggggAACCCCAAAIIIIAAAgggEAABUpMBQOYWCCCAAAIIIIAAAggggAACCCCAAAIIIKAXIDWpF2EfAQQQQAABBBBAAAEEEEAAAQQQQAABBAIgQGoyAMjcAgEEEEAAAQQQQAABBBBAAAEEEEAAAQT0AqQm9SLsI4AAAggggAACCCCAAAIIIIAAAggggEAABEhNBgCZWyCAAAIIIIAAAggggAACCCCAAAIIIICAXoDUpF6EfQQQQAABBBBAAAEEEEAAAQQQQAABBBAIgACpyQAgcwsEEEAAAQQQQAABBBBAAAEEEEAAAQQQ0AuQmtSLsI8AAggggAACCCCAAAIIIIAAAggggAACARAgNRkAZG6BAAIIOFUga8/OyS8+eduEcbO//cKpbQjduOkd3/Ztxprlzz18598uG7tt03rfXpmrIYAAAgggEEgBRgiB1Pb2XvSOt2L11mcIVy+R/SvE2D9EIkQAAQScJfDbrK9XLZlvIeZjho484bSzLJzo81NqaqqXzP35288/WL7w19raWrn+gewsT+4SAm33pJnBrWOtd7774sOtGWt1kbdq0/7Ca27RFWp3KyrK35r4aE1tjbZQ2Y6MjLzmb/9MSk4xHnJWSVlpyS/ff/nd5x9s3bhOibyoIN9ZTSBaBBBAAIGGC4TAGMbaCEHoQqDtDf8A+PsK1nqH8ZubfmEI5wbHcYdITTquywgYAQTsLpCYlBQVGbVq6YI9O7Z6F2ttrU1Sk/+46ZINq5Z6F/zh2iHQdgutDvAplnunpLhoxaK5hfkHtQHHxMWdO+EGbYl2Wz7JKU2arlo8X76OVsuTGzUePOLEVm07REU5/tmLspKSa846rqSoUG0dGwgggAAC4SkQAmMYyyOEEGi7/T+0lnuH8Ztp5zKEM2VxbiGpSef2HZEjgIBNBYaOGiO/JLj3Xnn6s8mvqFE+8850dVs2qiorS4oLd2zJ+ObT9/bvy5SSstJSbYUgbl/7t3/ExSf89PVnX3/yrldhhEDbvWpvUCpb651x518uv8rLSqVP5ZNZW3NkIuTkF/7TsWvPQceeYNqWmNjYK/9yV8RfIjJ37bjr2nMLC/JkmuSz781o3S7dtL7jChOSku554qWmzVLfeu7x1UsXOC5+AkYAAQQQ8JVACIxhrI0QBDAE2u6rj4H/rmOtdxi/ueoRhnCuZBxaTmrSoR1H2Agg4ACBMy64Qk1NytOvPfoOMAY9dNTJp59zydP/uk2ms5WVlRgrBKWk94Chct+EpGRvU5NqtM5tu9oE2240pHfiExIvuOrPzVu0eu7fdyqP6svjRU/f97f/Tf6yTYeObposR2Wm5C8zv+w/dETI5CWV9g4+brRsnHzGeaQm3XwAOIQAAgiEj4BzxzANGSEo/evcttv/89mQ3mH8Ztq/DOFMWRxa6PhHsRzqTtgIIBAOAo2bNvOkmY2aNLv7sRfkIVl5YYon9QNWp0mz5pbv5fS2W254wE5sSO9IGq5nv0FqqEWF+Y/ddaM8LqSWmG40aZ4q5TLB0PSo0wsbN/HoT6vTm0n8CCCAAAL1Cjh9DNOQEYLT215v5wa9QkN6h/GbafcxhDNlcVwhqUnHdRkBI4CAYwRiY+M8jFWyk6NPG19umwe6lbBjomM9jN9YzeltN7bIbiUN6R1pS2Td10Tu2rZp4oN/V+ZRumppYmKSHIpLSHRVwdHl0TE8R+LoDiR4BBBAwGcCTh/DNGSE4PS2++xD4LcLNaR3JCjGb8aeYQhnNHFiCQNxJ/YaMSOAQAgKnH/VzTlZe23VsKiY6MDEY8O2B6bhDbmLz3vn999++uC1/x16s6Srn8hIOSKvJnB13NHl0dGMiBzdgQSPAAIIBEfAhmMYn48QXMnasO2uQrVPuc97J8zHb9KzDOHs8/FuSCTMmmyIHucigAACPhOQ9Y77DT7WZ5fzxYUiIwKUhLJh233h599r+KR3br7r3000D2h/+s7Lc3/8xr9x2/XqoZpytas3cSGAAAIhImDDMYxPRgiedI8N2+5J2MGt45PeYfym7USGcFoN524zR8C5fUfkCCAQCgLvv/pMi1ZtZPU9V405kLPvl5lfbd6weuuGNfkHD7Tv3K1zt16nnHVhj34DfXhKZUXFkvk/r1+5dP3KJbu2b05r3a5Ljz7nXXGTq1v4pLzetssi5nN/+kaSZbI8tLwPsVWb9t37DpDVhGQ9lkaNmxpjkOeRVy2e//20D1f+Pv/W+54YdcoZa5YtmvLGs/K0cr/Bx7VN79S0WQvdWd1695e3km/NWLt2+e+6Q7IbFR0t74NXnp0x1hkxZlyLtNbqWXKXr6e+u3vHln17d5cWF0lP9eo/qFf/wYOOG51w+FFotaZsuA/1gqv/LCer9f3XOy1bt73vqdfuv2WCUCu3e/6Ru9t26NSlZ1/17p5v1PtZlddZ/jTjU90FTz7z/JRGTZTCH2d8KnTaCjpkr9y86hHtTdlGAAEEEEDAvUC9Yxg5vd5/FnW38La+nO6/EYIuNu1uvW1n/KZw+a93GL9pP5Bsh4YAqcnQ6EdagQACThWY9+M3w0ef5ir6xXNnP//IXQV5B2Pj4uRpBVknZ8OqpfJr5vSPz7/ypgk33R4Tq38dpIVTCgvynrjrprUrFksY8gV42/adtmxcu33zhjnff+kqMJ+Uu2+7NPO///xrbk6W3CspOSU2Ln7D6mXyS3ZlQHb/029o02dCJFmtmdOnSBJTia20pPi3H2Y888D/Ke9PnPfTt2KlJuCUOrLc4eU33y6pye1bMj5//3X5TwKlXPldvoNN79L9T+dNiD78Wkap8+nkV/IO7FeOSo907dVfSU3KItevPfWgdEptTY2c1bVXP8lFSpJXfknlAcNGPfTcO2pPeRKq5Ddf+PA75Utgf/eONP8v9z764mP/UNpVXlb6+N03TXx3hrevaffkgycXX/jLrJ1bMyTJrtxOfu/Zf7C6eP3vv/64ad0qpdOVCvKBVJC9cvOqR9RI2EAAAQQQQMBDAfdjGLmIJ/8sau/lbX05198jBG142m33bWf8xvhNPi2M37R/ZNj2RIAHuj1Rog4CCCDgF4FlC3/du2u7q0t/POmFR++4vqyk5MY7HvxkztqPflr56EsfqLmwz9599cPXJ+rOtXBK1u4d91x3vuQl4+IT7nz0uTen/zrxva/e++53mbUn+R3d9X24677t82d/d99fLpMUVXqXHhPf/erjn1e/P3OJBCZJSYlBXsp5zw0XSuZRjefPF5w8+cUn1byklG/buG7iw3coeUmlmuQlb7j9AWW8qJRMfPfLcy+/UbbHnHH+5G8Wjj3vMqVcfo+Li3/76/kvfjRTfbW21Hn3u9+bt2wlR2VK6ZvTfu0zcKhS/+3nn/j+iymSl5TeeWvGfAn4pY9n3vKPx5WjKxfPe+2pB5Rt+d2TUHdszijMz5PKgemd086+ZPwl16gRCu9/7v1zdVWVWlLvhocfvGapLR9/dcrbMxb0HzLC9Jr3Pf36WzPmnnr2xcajXrl51SPGe1GCAAIIIICAGwH3Yxg50cN/FtVbeFtfTgzMCEGNUN1w33bGb4zf1I+KssH4TQfCrisBUpOuZChHAAEEfCkgOTJ5MFn99eNXn7w58ZEn7/mzq3vs2LJRxqly9P8efHr8pddKgkx+DRg+6l//m6Q+HTz9wzclh6VewcIpkn568Lar9+zcJhf56/1Pnjj2HOVq8v7Bh194t02HjurFG7Lhbdv378t84dF7JJOYkJT06MsfyDPXyt0lW/rUW59Lekt2K8rLZEbk5vWrlUOPvfKh5A3PuPBKNc4ZUydLK2S64p/OnyB5RikfOmrM2Zddd9K4c9U6MhFP3ZaNG+98qF16Z6UkJi6uSdNU7VHZlpvmH8yNioq+7YGnlBylFMqche8+/0CpOf7S65TcsezKfdWHsuf+9K1SQX73MNTGTZsFpneUwK77+/0yu1MNUlLVrz/zkLrrfsPbD55MOD3upNNdXVN4ZbV641HP3bztEeO9KEEAAQQQQEAR8HYMI2d5+8+it/XlFoEZIXjbdsZvMtRk/Kb7q4Pxmw6EXVcCpCZdyVCOAAII+Fjgqfv+qv564bF7Z3z8jjzf6uoek559RCYtyuSyE06vk6aRp5hPHX+RclZ1dfWMqe+oV7BwyndffCjfussVOnfvreYllQvK0Oq08SaT19TbebWhNlw26m37q//9l7yUUK5/xgVXKolI9V6pLVufM+EGZVdGzG8/f2RmorBITXkFp1pTNu7772tDRp4ksxdlJuNTkz57YOIkKVRPl215yltbXzKY4y64QikpKSpc+MsP2qOyLSXyHwNDjz9Z+yz5vj275F1CSs3Uw3Mq1bPUdY3kampfex5qwHpHApbXBdzz5Eut2x9NRss8UDXlqrbIdMPCB0+Z/Wp6NSls1MTkRaKeu3nbI67CoBwBBBBAAAER8GoMI/W9/WfR2/pyi4CNELxqO+M3ZagZsN6RTwLjN0HgJzQEeNdkaPQjrUAAAQcInPSno/P1ZFGX7ZvW788+9CJF44+8o3Dl7/OkvGPXHsY6jZs2V0/ZuXWTsm3hFHkb49S3Dk3MlJ8Lr7lF+6SzUjj0+DHvvfK0st3A3z1v+769u5bM+/lIAKNONt533AWXfzb5FQGUQ7LKzdL5cyT/qFRLSmmk1peHlNWVguS1ieqbE+VZbHkX5JYNa6Tmrz98df3f/6U+si0lJ407b9KzjyoXmTn9o+NPPVO9oGzI6yzl99PPvkRb2LFrz8SkZMGUwl7HDNYeanp4gqdSUlZaKq+2VI/WG2oge0eJSlYW+tczb9x93flKW6Twjf/9u0Pn7mqCVQ1eu2HhgyenR0W6+2bU+FFU71ivm9S01iPqLdhAAAEEEEBAK+D5GEbO8vafRW/ryy0COULwvO2M35ShZiB7R/mUMn7T/mll27kCpCad23dEjgACThKQbMsdjzyri/iL91+f/OJ/dIWyKyuuKIVff/Ku/DJWUEtkNW1l28Ipc76frq5G0qlbT/Wa6ka79C7qdkM2vGr77G8+l+mQyu06de9lvK/kAU8/95Iv3n9DObR66UI1NRkdHa3W7z1giLqt2zj1rIuU1KQ80L143uzjTjz6cPGOP+TlFFnsO2vPztbt0pXTszP3SEmzFmlDRp2kvaA8nvz4ax/NnfWNPG6f1qa9ckhmvC5f+NviuT+pNWuqq9Rt2ag31ID1jjYqebPnnY8+L8vgyHszpVymiP73n7f8b/JXaW3aaatpty188LSne7tdr5tc0FqPeBsJ9RFAAAEEwkHAqzGMgHj7z6K39eUWARsheNV2xm/KH4eA9Y72Tx/jN60G2w4VIDXp0I4jbAQQCAWB86+8+dvPPjC2JHPndqVwxEljBx032lhBLVHfO2nhlO2bNqjXUXNqaom/N1y1fcOqQ2twy48MiJNTGivbut87dj2asty17ci8UakjrynU1TTdHf2ns99+4XHlKezZX3+uTU1Kslg9RTKkP3w59apb7lZKlDH3KWdeIM/OqHWUDXmnpPpaSVnCWx6FnjntI+0y07r6sltvqMHqneEnnHLFzXe8/+ozSsySvH7i7pv+O+kz7ZRPbXMsfPC0p3u7Xa+bckELPeJtJNRHAAEEEAhbAVdjGAHx9p9Fb+vLLYI1QlC621XbGb8pPsHqHcZvij+/O1dA/99Xzm0JkSOAAAJOFDCdrrh31zalLd37DpDVVDxpl4VT1KReUnKKq8STJ7e2XMe07dmZu5ULSmZQlp0xDUw7iW/3ji3eBiBPvkg68rdZX8uJMmtS5k7KizVlW95DL4+Hy/sWZc6gPJckJT99/dnlN98uuUgJRralxHTxaCmXH3n0/pO3X5SHvmUBH3nx5aU33CZnTX3rReWot78HsXcuuvZWmcShLoC+deO65/59171PvmzaBAsfPNPr+KPQtz3ijwi5JgIIIICAQwVMxzDSFm//WfS2vtwiiCMEpbNM2874TcEJYu8wflO6gN8dKkBq0qEdR9gIIBAiArf+84nY+EPrR2t/DuRkK7v79uzUlrvZtnDKrm1HHgaX1+LIFEJ5DNbN9f1xyLTt2lWzc3P2te3QyXjrlq2PPl9cW3Pk6W9jNTclp4y/SElNyjPL8sbJsy6+WipPOzxl8rwrbiwuyFdesnlwf/biuYee+F6zbKEkK/sOGm4aj5w7c/rHkyY+ImvdSJ73+v/71+nnXiqeMn3STQzuDwW3d/7vgaf27tymPPYuccp6QVPffsk0YAsfPNPr+LzQ5z3i8wi5IAIIIICAcwVMxzDSHG//WfS2vtwiuCMECcC07YzflA9zcHuH8ZvSC/zuRAF376F3YnuIGQEEEHCWgLy7MKVRE13MzdNaKSUb1iyXmXe6o9pd9aiFU+SJaeVScpHsrD3aywZm27Tt2rWbc10sE6SuaSNxaut7Hvag4ce3aNVGqa9Mh5QZdr/88JVcWR7ZlpW+1Xca/jD9Y6k266tP5PfTzqmzAI56u7eee+zlJ/4peUlJXL740cwzL76q4Xne4PZOXHzC/U+/0bR5C7WNU16fuOiXWequumHhg6ee678Nf/SI/6LlyggggAACjhMwHcNIK7z9Z9Hb+nKL4I4QJADTtmvHY4zfRCkoo2vGbyLPj0MFSE06tOMIGwEEQlmgfccj68/s2Jwx98dvXDV19dIF1541QslOWjil3R93kevv2bHV1V2U8praQ+uiBOCnXaeu6l02rVupbms3CvPz1F1tK9TCejcio6IkBalUk7mB8ij3Vx+9LTMoz7jwKhnVyZh7yB+Lgy9d8IscXfDzTFkb+vhTzjBeWaZVfjnlLaX8jn8/qx2aGyt7XqJtV1B6R1K39z31WkxsrBKzfMy2bz76clK1IRY+eOq5nmxU11R7Uk1bx089or0F2wgggAACCJgKePvPorf15aZBHyGYNpzxm8IS9N5h/Gb6+aTQ/gKkJu3fR0SIAAJhJ9BWszS2LEgi7y40JfjozedTW7ZSvjy3cEp7TRJwxtR3TG+hFlZXeZ0hUs/1aqNj1x5q/Z9mHHq9o/HnYG6OWjjy5HHqtlcbMjVSnXcw4+O3Z06bIknJMy+6SrnI2HMvUzbkvZMP3XaVzIg88fSzpYLxFr//9qNSKO+X7NFvoLGCUuJtbtcOvdPrmCG33PuYrkVKKlwttPDBk3NjNG8PKCkqVK9m3Kip9jon7qceMcZGCQIIIIAAAjoBb/9Z9La+3M4OIwRdq2WX8ZtiYofeYfxm/HxSYn8BUpP27yMiRAABpwpUVh1NKUpCR5JcHrakz4Ch6krEWbt3PHDr5bLus+7cjye9sGbZInV1aQundOt9jHrNlb/PW7diibpr3JAVaYyFbkost/20sy9Rl77ZtX3zxrUmEydlYRbl1jK98ZhhI0zDqK6uJ5cqy93IuyOVc2Ulbnnh5qnjL1LWw5HCISNPbN7yyGP1B3L2SYmrp7nXr1yqXESuIBlMZVv5vUYz489Nbtc0VL/2joRXffjDWaX5iGojV7dl2Z/xl16r7ho3LHzw5CJJScnqpfZnZ6rbyoa209188Ezd5ArWeqRuytXdWxR00bKLAAIIIBBiApbHMOLg7T+L3taXW/h1hGC57YzflD8Ffu0duQXjN+OImiGc8tlz+u+kJp3eg8SPAAL2FdBNBystLfEwVvnGdex5R2btySlrVyy+46rxM6d9JKv+VVSUb81Y+78H/j7ljWdlxZWT/3gq2cIpp551Ybv0zmpIEx+6XVKB6q5sLF/0m7qbuXuHuu3JhuW2y9zD8Zdco97i7ecfM04a/eaTd5UKV//1XjWHKyU11VXqiZLSVbddbWiX25ZHvM+dcL1aUy576lkXqbudu/fu1ru/uqvdSEhKUnbLSkvkuW/10Jzvpk9+6T/qbkHegcL8gw/97SolQ11vqH7tHYmq+PBcxaLCAjVCVxvX//3+AcNHuTpq4YMnl2rZpp16QYFSt2Vw+cX7b7zyn/vVkszd29Vt2ajXTepY6xH5k6XeqKL86LZayAYCCCCAQJgIWB7DiI+3/yx6W19u4dcRguW2M35T/nT4tXfkFozfdCNqMWEIp3z2nP47K3Q7vQeJHwEE7CugnfwlUcqbEwcMc5ni0TXjij/fMXfW14UFR16qKIu0vPzkfbo6N9z+QIu01mqht6dEx8TccMeD//77tcoVsjN333P9BVfdes+gY0+orCj/+bvpn7/7qnrxRb/8MOnZR0uLiy+8+i9tOnRUy11tNKTt519184I5M5UXLMpczhcfv/f2hyeqN5r+4ZvKSw8HHnv8mDPOV8tlI2vPLnV3S8YaddvVxqgx415/6kGZ7SgVRpw0VuZRamueevZFn05+Wfkm1tWUSanfqWvPjWtWKCe+8t/7c3Oy5JTlC3+TN4Fqrzbp2UfkOXQBlNfXS3m9ofq1d+RzpaRuD63B7WJtHzV4ydLe++TLd15zTuYu82yvtx88uXJqy9at26VnHV6AftWS+fLBO3HsOTKynPvj15vWrZKM+Z6d25QAvv3s/bKSEhmG3vLPx+WB+nrd5CyLPaLJZSuBqQJsIIAAAgiElUBDxjAC5e0/i97W9+sIoSFtZ/wmve/X3mH8JsK6EbWUaKcjMIQTEIf+RD/88MMODZ2wEbCDwE+bP9KFcUr3CboS3+6uy67UXbBv2pF1KnTl7Hoi8MYbb0i18ZcdnS7nyVnu65QUF8n0Rply+MYzD8tMOrXysgVzoqKjY2PjEhISY+Pi1XLTDXmoWd4Us3zhr0rizFhn3PmXX3L937TlFk6RFaVjYmJXL1so6wjKpSQjuWTu7BlTJ0s+aN2Kxd169T+wP1u5haTbMtYsT0xMGnbCKepTz9q7K9s+abtkoE4ad67cLjvz0Lrh2zdtWPTrj/JIu6SrPn3n5RkfvyOFQ0ed/I8nX1UXaZE8prxh8L2Xn1KTuTI0kVRgbGy8LDOtVtMFLG3ft2fnloy1Uv5/DzydqsnzSklK4yaCsG/vLllu++8PPRNv9qJJqSbvff9h+kc1h58flwme8mj8ysXzJM877Pgxl15/m+RYlZvmZO2Niop6/NWPigsLPAzV570j6/z8P3v3AS5HVTcOOLelNxKSECAkdEKREogC+pkAH9KLUjSKfn6CKDb+guKHIoooCigiglIVFVAQIgZEmtRQDcUECB0SIQ1SIAnJrf8Di5Nld+/NvbuzZXbfPHnynD1z5pT37L0cfnNm5pXwTp8nHj/vByeFEGro2EvPPTXnhWcC+ICBg/r2e3f7Z6rD6f+GAjtM3P3Om6a2tDRvue2OE3b9cPrRPL544fSNNtkiVJiqJ9zTPeO+Ox978J5w7/x/feSgz3715NSL0cPR1atWPf3EYyNGjQ7xykcfvLc7U9zTGQm34c+c8cBvzzsjtJXqT4g1jxm3WXhL+8DBQ1M5Mf57wx/ffmnSscceG2OdqiJAgECtCVTs+i1MRE//s9jT8qGJ2FcI1m/Wb9m/Q7L/XyOUqZz1W1jhh1V6yZZw1b1+K32EITuKUpfaD5L9RZRDgEB3BE6+6cCMYj/ad1pGTrwfr5m1JtSVqvnwbTsNKMTbdFXWNmHChDCuC6+/L8bRXXjWqTde87suKvzIIR//0slndFEgOrRsyeJzTzvxn9PviHJCItyvety3fjhpn0PSM6N0Hqc89uC9P/3u8cuWvB5VEt4Pc9An/veTn//6EZO2SbU4eZ9D9zvsqLGbbRmVyZmIcewhzHfh2afec+sNGfcWhTcPHvTxz4bupd/K/c2jD5v9rxk5u/StH1+w2x6dvipn9sxHwpa9bXbY5YyLrs4+/Z5bpp31na9+aO8Dv3H6L7KPRjn/nP6Pc0/7ZgQ4aMg6n/riCfscOiWEer/+mYND7C+U3GSLrb926tnhxvCedjXG2XnonttPP+HoqNvpiXBD2QVXv/s+n/T89HR48/XpJx5zwBGfOebr303PT6Xz+OL97oKzws7caB0SQsCfPPbrh37q8y8+8+TxRx0Qqh2yzvC9D/l4kAzvPe+RW49m5Ntf/ERY12aPKES0r5v+9tzF++fYg3cLFc6YkfvrGm9baiNAgEC1ClT4+i2w9/Q/iz0tH5qIcYVg/RY8rd+iXxdd/79GhazfQm9LuYSr7vVb6SMM2VEUocnoB1CCQD4C2T9UQpP5OJbvnGIsbWMfzRtLl4SbwcMjJvsNGLjZVttuvMXW4QJ716309JTwwpaXnnv66ZmPhF2HYbNkeNP0wEFDwlMR/3jpL4YOHxFutg3Ptey6xSIdDX0IT8CcPfPR1xfOC0HJ0RuOG7/9hIaGOJ9GcvVvfrnDxA9tsc322UNoaW6++rLzdttzvxBSzD6anhN23r347FMhihqeorjh2E2jd3+HuNusRx4IIbZwkTm9fI/SlTM7IUoerlF39tjNMKiefvHCG42eeOTBlStXbLXdjuPfNyFszwyVhIdyXn/lZeFdn7tO3qezHa9rBSzqjKy19S4KVPfStouBO0SAAIEYBRKxfgvj7el/FntavnJWCBmTa/0WQCpndqzfMr6feXys7vWb0GQeXwmnEKgsAaHJypqPnvcmKUvbno/MGQQIVKJAdS9tK1FcnwgQqEYB67dqnFVjIlC5AtW9fquE0KQ3dFfut1/PCBAgQIAAAQIECBAgQIAAAQIECFSxgNBkFU+uoREgQIAAAQIECBAgQIAAAQIECBCoXAGhycqdGz0jQIAAAQIECBAgQIAAAQIECBAgUMUCQpNVPLmGRoAAAQIECBAgQIAAAQIECBAgQKByBYQmK3du9IwAAQIECBAgQIAAAQIECBAgQIBAFQsITVbx5BoaAQIECBAgQIAAAQIECBAgQIAAgcoVEJqs3LnRMwIECBAgQIAAAQIECBAgQIAAAQJVLCA0WcWTa2gECBAgQIAAAQIECBAgQIAAAQIEKldAaLJy50bPCBAgQIAAAQIECBAgQIAAAQIECFSxgNBkFU+uoREgQIAAAQIECBAgQIAAAQIECBCoXAGhycqdGz0jQIAAAQIECBAgQIAAAQIECBAgUMUCQpNVPLmGRoAAAQIECBAgQIAAAQIECBAgQKByBYQmK3du9IwAAQIECBAgQIAAAQIECBAgQIBAFQsITVbx5BoaAQIECBAgQIAAAQIECBAgQIAAgcoVEJqs3LnRMwIECBAgQIAAAQIECBAgQIAAAQJVLCA0WcWTa2gECBAgUHMCr7z8wiXn/OArU/a597Yba27wBkyAAAECBAgQSKCA9VsCJ02X4xRojLMydREgQIAAgS4FbrruiheefiKjyKjRGx72P8dlZKZ/bG5efenPftDe0Z6emUrX1dX9z1f+r/+AgdmHaiqnra31wbtuvenaK/71z/s6OjrC2Je8trCmBAyWAAECBAgQKJKA9VuRYK3figSr2sQJCE0mbsp0mAABAskWWLli+WMP3vvmsiXpw2js3fuQKUen56Sn6+vqBw4Z+q+H73t61qNR/oBBg3fa9cOj1h9TX+8OgF4n/M8h2THfyEqCAAECBAgQIFCIgPVbIXqdnWv91pmM/FoTEJqstRk3XgIECJRTYN+PfjL8Xb3qrRuuvvx3F5zV0f7uRsjf/uLHYzfdcsf3fyhn5xqbmo764om9vthr3tyXT/zsIW++sTRskzznd9PW22CjnOV7mtne3lZf39DTsyqq/Be+8f1+/QfecM3lN0+9qqI6pjMECBAgQIBA0gUqc/0WVJO+hLN+S/qPhv7HJWCnSVyS6iFAgACB7gr06dvvY5/+wvHfPTvcjp06J6wszzr5KyHy2HUVo8eMDTslQ5ntdt41xrjkMYf81/13/L3rpiv86FbvmzB2sy33OXRKhfdT9wgQIECAAIGEClTU+i0YhtVj0pdw1m8J/VnQ7dgFhCZjJ1UhAQIECHRLYPJ+h2657Y5R0eVvLjv9xGPC7UJRTs7EkGHDQ/7Qdd7+N5Y/999x86L5r7a2tMRSW3krGTRknfJ2QOsECBAgQIBAdQtUyPotIFfNEs76rbp/ZIyuOwJCk91RUoYAAQIEiiJQ997HRM598dmffff41FtcOmuvX7/+4VDvvv06K9Cj/Jbm5qsuPrdHp1Ry4cZGz2mp5PnRNwIECBAgUA0CZV+/BcRqWsJZv1XDT4UxFCYgNFmYn7MJECBAIFaBh+65/Q+//mlXVb5zD3h0J3hXJbtx7Jc/+tacF57pRsFkFGkQmkzGROklAQIECBCoKoESr9+CXTUt4azfquqHwWDyEhCazIvNSQQIECAQn8CxJ35/SNoN2tf85vx7b7sxvuo7rena3/36jr9N7fRwIg+8++zORPZdpwkQIECAAIHkCJRr/RaEqm4JZ/2WnO+9nhZHwJ1fxXFVKwECBAh0W2DEeuuffOavv33clOiBj+ee9o31x4zbZMttul3HewouXrTgrpv/+tzsmS/MnrVsyeINN95s48222vOAw7bYdodUufCO74vP/v6df/9LdNoDd9+6dPFrqY+7Tt7nn9PvaGleHR1NJTYbv9347Xd+4eknnnj0oYxD4WN9Q8N+H/tU6han7DK77rHvuiPXi84KI7339htDBDa8+Sc8ZHPU6A0332b7LbbZPrzkZ9DgoVGxKBFucv/Xw/f9feoVjz9035dO/tHue+4365EHr7zonHAL/LY7feBjn/nCZlttFxXOTixb8vrdN/81Oz80utV2O2XnyyFAgAABAgQIdC1Q+vVb6E/XS7jVq1f16dM3o9sxrt9CzaVcwlm/ZUylj1UsIDRZxZNraAQIEEiMQAj5ffGkH5x3+rdSPV696q0ffuPzP7t82pB1hvV0DA/f+49zTzvxjaVLmnr3bmhoXPXWytn/mhH+3vyXP370qM9P+fz/a2xq+u6Xj3p+9qz0mu+5ZVr4m8oZMXqDcDV+watz0wuEt1J+8tj/F/r50vNPX/v7C0P0M/1ouMF8o002Dy/Ibnjn6ZmhzDW/vSCKdYaebLrVdlFoMnTmJ//35dcXzQ819B8wsKl3n9kzHwl/w8ewyv/2WRelx2TDQG6bds3Nf7kyen35WytXhK6efcrXUg/lnH773/798vO/uOKmLm5yf2PZkr9fd+Xcl56L+ty7T9/Q4QGDBgtNRiYSBAgQIECAQI8ESrx+C33regk3dNi60eorNZAY12+hwiIt4Tozt37rTEZ+9QkITVbfnBoRAQIEEinw3wcd+dKzs6f96bep3oe3Zv/4pC+cfsGVPXr+zh8v+UXYS9i7d59jvv7d/Q47KlQVdheGSOVrC+e3t7f9+fJfhXDeZ7580udPOPXNN5YteGXOxT87LdXcgUf+z/YTP5hKj99+wq+v/cftN1x7/o/+L3onz88uv37MxpuHAnvs99Hw9/wzTr556lWp8qG5C6feOXzEmk2RocDkfQ/97AG7hgjmJlts/d1zLhs2YlSq8H3/uClEFcMl94022eL4U88OV/JDftjgecY3vxCGHP5+8+jDvnbKmR/a+8BU+S98bHLYVplKp/598Zkn/3btH6KOhcyXn3v6zWVLBw/t9PXcY8Zt9o0fnffVKfuGwiEoGQT2P/yo+vqG9GqlCRAgQIAAAQI9FSjl+i30reslXLg/5qG7byvG+i00XbwlXGfm1m+dycivPgHPmqy+OTUiAgQIJFXgf4//9va77B71/onHHr7w7FOjj2tNvPz8MyE0GYp97btnHfjxz4aYZvi7/cTdv/PTS/q+817vcOgvV1wcAnnhIv/ED+254wf+K6pzq/dNCDmpv+GW6rDdcu+Dj5y07yFRgbB7MUqHxDEnnLrBRhunchp79x4ydHj60ZBuXr0q3IYTwn9fPeXMKC752oJ5v/jBN0Ncsm///j84/w+puGQoHG7HPvPSa9cZPiJ1YohdPvfUzFSFp19wxeU3PZQKs6ZyQvQ2PJrz1J//Zp+PTglR0ZC58+57dBGXDAXmvzLnhyd+PiTGbrbluX+4McRhxSVTmP4lQIAAAQIEChQo2fot9LPrJdzQdYYXY/0W2i3LEs76rcBvptMTJCA0maDJ0lUCBAhUuUAICH7zjF+ut+HYaJzhNuSbrv1D9LHrxCXnnBa2Rm43Yddoy2GqfLg/eq8DD0+l29rapv3pN13XEx09eMrRUTrcNx2lQyLEBPf92KdSOSuXv/nAXbekHw3pkNPW2rrzByen3539q598Z+WK5eHofh87KhWIjM4Kmy6j5sKOyMvO/WHqUDg9lAwPyoxKhsTJP/n1hN0mHfetH1467b4zL/nzKT+7JP1oRjpEbL/1+SPC/elb77Dzjy+8eoOxm2QU8JEAAQIECBAgkLdA1a/fgkzpl3DWb3l/IZ2YRAGhySTOmj4TIECgagXCjsXvnH1Rv/4DohFe9NPvh5uyo4+dJZ56/J+PPzQ9HB276Rbh9u2Mv4OHrnlm5ZwXnu2skoz8cC/2plttm8q8+5a/hlBjeoFJ+x4afbz5L+/e3B3lhAdEhvTeBx0Z5YTgYHi7TurjzrtPjvKjxL4f++TAQUNSH8OQZ9x3Z3So/8BBUTrcORW9zyc8izPs9+ziKZOB5f8+f0S4rzy0eNp5vw8Pl4zqkSBAgAABAgQIxCJQxeu34FP6JZz1WyxfS5UkSEBoMkGTpasECBCoCYHwEMYTfnBu6lXXYcAhIPiT/ztu4bxXuh58ePNMqsANV1/+vwfsmvE3PIAyOj39bTBRZmeJvQ54d7tluKH74en/SC/28n9aDJnh9dnhppvoaOhtyFln3ZETdp8UZf7jxmujB0SO23yrKD9KhIDs3oesCWXOnPFAdKihYc1zIcOjMKP8rhPhjUCnfPmo8KjKSfsc8u2zLwpPmey6vKMECBAgQIAAgfwEqnX9FjRKvISzfsvvG+isRAt4DU6ip0/nCRAgUJ0C4ZmPnzr267//1dmp4S1bsvhH3/j8Ty75c3jNYmcDnjfnpdShXSd9JP0hktnlo+dOZh/KzvmvfQ667Bc/bGluDof+ccO1H/jw3lGZ635/YZQOMcdbrv/Tp4/7RiontYTdc/+PhVucojKz//X2O7jDn7DJccDA3LsXx266JmQ598U1uzvzeDTk7Tde+/Jzs8MN7OExlMd/7+w8akj11r8ECBAgQIAAge4IVOX6LQy8lEs467fufNOUqT6BNf/LVH1jMyICBAgQSK7A4Z/9UtgIec8t01JDeOGZJ3/+/RNPOuP8zkb06twXU4c232b78H6Yzor1ND/coBTCkffcekM4MeyaDHsnUy+cCQ8ACjdch8didrS3h9t8wtHbb/jzJ4/9fyEWGcKUIR1y9jroiPTmFs77d+pjKBBekpMzzDpy9AbRKf9++fkonUfihaefSJ0V+nzVRT//5BdOyKMSpxAgQIAAAQIEui9Qfeu3MPZSLuGs37r/ZVOymgTc0F1Ns2ksBAgQqCqBr51yZvSoxzCw8CKaP132y85GuHjRwtShBWk3VndWuEf5e0av0GltDU+cTJ079Z0tk4d+6piPHPLxVM6S1xaGG3BCetYjD4Rg5TY7Tlx/zLjUodS/6e/4fn3RgvRDUXrEemtCkx3tHVF+HoldPrhHtFPy6t+c/+Bdt+ZRiVMIECBAgAABAj0SqLL1Wxh7KZdw1m89+rIpXDUCQpNVM5UGQoAAgWoTCM9G/PZZFw0dtm40sCsv/FlnIbZhI0elis2e9Wj0SMfoxPRE10fTS6bSO0784LqjRqfSqe2Q4R07d93y1/AKmnDLdnh3dvQgyFv+8sdQ7Na/Xh3+/e+D1zw1MnXuiPXWTyXCv68vnB+l0xOhzuhjevkos/uJHSZ+8KjjTkyVD0M+53tff+XlF7p/upIECBAgQIAAgTwEqmz9FgTSl2TFXsJZv+XxlXNKFQgITVbBJBoCAQIEqlYgxARPPvPXjU1NqRGGENtLz83OOdoNx26Syn/5uafvve3GnGVC5swZ93/2gF17FJ0ML+QJIchUhc/PnhVu5f7rVZeFl/Psd9inw+L7nXfdvPu67Rn33xWO3n/HzeGF2h/cc7+MPmwwbtMo59knH4/S6Yk3ly2NPm7wnxFFOT1NfPSoY8OTN1NnrVyx/EffOHbVypU9rUR5AgQIECBAgECPBKpp/RYGXuIlnPVbj75sCleHgNBkdcyjURAgQKBqBbZ634TjTjo9Y3jZscX1N3o3NBlKhvfntLa0ZJyS+njVxecOHzEqvIgm82hHV3dPh62R0SnT/njZzVOvDEHJ/Q//dKqSjxzyiVQiPHfy1K9+evWqtz6890GhQEYTYzfdIsq5fdrbD6PM/rPk9UVR5m6T943S+SVCn7926tlRiDO8mvyc75+QTZdf5c4iQIAAAQIECHQmUKL1W2i+8yVcLOu30EKJl3DWb519qeRXsYDQZBVPrqERIECg0gXaWt8OILa+828XfQ3vkznw45/tokA4tPX2O0ePVpz/75dP+dInly5+LeOUP17yi1mPPJj+lu2owMqVK6J0diK87iY8OzKVH97E/dbKFXsdeHjqfTghc8JuHx424t3byRe/8xDJ7Lu5Q7H/PujI6NU3IUr4zBM5Nk6Gt/2kWgmbMd+3y66pdMa/4aXbGTk5P6ZCkP0HDAzbTvv2758qc/8df7+68+d15qxHJgECBAgQIEAgXaBy1m+hV10s4WJZv4UmSrmEs35L/6ZJ146A0GTtzLWREiBAoOIEVix/M/Rp+ZtvrLVnnzv+29tP3L2LYhuO2/Qjh767ezEUe+Kxh7/+6QNvnnrV3BefbW5eHV53+NNTjr/yonNCqG7yf+7O7tt/QFThy/+5T/y35/34/DNOjvKjRPrrtsMt3odM+Vx0KIRE9zrg8OjjxpuP32z8dtHHKLHO8BEHHvk/0cfLzj09e2vnjVdfnirwmS+fFEVaQ057W2t0Ygi8RumMRNiwGeW0tDSn0mM23vyr3zkzyg8IIUAZfZQgQIAAAQIECPRIoLzrt9DV7i/hCl+/heaKvYSzfuvR10/hqhQQmqzKaTUoAgQIJEDgzTeWpqJs4QGOa+1uiNOddMb5o8eM7aLkp77w9UGDh0YFwstqQpDxS0fufdgHtzr+qAPuuvn6cOjo/3fKuiPXS5UJ2x6jp1je/JerLvjxt3/+vROu+/2Fm22VI7C4+x779vtPKDM8wDFch48aCom9Djo8uuM755bJVOGPfvrY6PbqJx/753k/PCm9kr9ccXHqSZo7vP+De+z30fRD81+ZG318/ulOuRa8Oicqtmj+q1H6g3vtP3m/Q1Mfw9X4EKV95IG7o6MSBAgQIECAAIFuCpR9/Rb62f0lXCzrt9BiUZdw1m/d/O4pVsUCDd/73veqeHiGRqDYArc/d1VGE3tuPiUjJ96PTy7MfILeNiPffUNIvA3VSG0XXXRRGOmBn1izA65GBl7GYYYXyLwSXhbzxOPn/eCk1xe9/aLql557as4Lz4SHMw4YOKhvv3dvPc7uYSiww8Td77xpatgPuOW2O07Y9cMZZcLt0uHBRo8+cHe44TrjUOrjvh/95JGf+0p0qKGh8eXnn57zwrMhp72t7bmnZr747FPhxu3PHf+d+oaGqFgq0djYtOCVOc8//UT4+LVTzhr+n/hm6ujAwUOefOzhBa/Oberd+/hTz+6T9aDJVLEwhEn7HvL0rEcXznsl5Lz07OwH774t3Hj+ypwXr/nN+dP++JuQufPuk791xq+imGl4rfZD99z2u/PPDP8nkKpk/itzwiMpm5r6hHeXR8XC5tCZMx74/QVnRbexh9cBjdpgTFPvPgMGDGptaQ4tPvbQvakawi3hd/39+tWrVvYfMCjEW0OZVL5/SyBwwx8vDa0ce+yxJWhLEwQIEKhWAeu30s9s5azfwti7v4SLZf0WWizSEs76rfTf5PxarO71W+kjDNlRlDqPw8/vq+ksAimBk286MIPiR/tOy8iJ9+M1szJfsHv4tp2GcuJtuiprmzBhQhjXhdffV5Wjq8xBPXTP7aefcHTOvoWbsi+4+rach6LMh+/9x+knHnPAEZ855uvfjTLTE8uWLD73tBP/Of2O9MzwsMXjvvXDSfsckp4Z0qveWvmDrx8dXtsd0mHb44c/cvAXTvpBuOk7o1jq4+yZj3zzcx/bZoddzrjo6uwC99wy7azvfPVDex/4jdN/kX00PSfcx33h2afec+sNK9+5nz06FF5nedDHP3vQJ/43/Vbubx592Ox/zYjKpCe+9eMLdtvj3VflfO6g3dO3SaYXC6RvLlty0jFrbjlPP3rsN74fvc8nPV+6SALHHrxbqHnGjNxzWqRGVUuAAIEqE7B+K/2EVtT6LQy/+0u4uNZvodHYl3DWb6X/JufXYnWv30ofYciOoghN5vfNdBaBdwWyf6iEJpP15bC0TdZ8pXobwo5hw2DO5zlGw3lj6ZJnn3w8PGKy34CBm2217cZbbB29giYqEyXC5s1X57y44dhNw8tnosyciat/88sdJn5oi222zz7a0tx89WXn7bbnfuFZk9lHs3PC67zDy3Bmz3z09YXzQlBy9Ibjxm8/IewCyC4pp5oEqntpW00zZSwECFSygPVbJc9OZ32Lff0WGhoJfVcAAEAASURBVOrmEi7G9Vto1BKusymu4vzqXr8JTVbxV9fQakVAaDLpM21pm/QZ1H8CyRKo7qVtsuZCbwkQSK6A9Vty507PCSRRoLrXb5UQmvQanCT+XOgzAQIECBAgQIAAAQIECBAgQIAAgcQLCE0mfgoNgAABAgQIECBAgAABAgQIECBAgEASBYQmkzhr+kyAAAECBAgQIECAAAECBAgQIEAg8QJCk4mfQgMgQIAAAQIECBAgQIAAAQIECBAgkEQBockkzpo+EyBAgAABAgQIECBAgAABAgQIEEi8gNBk4qfQAAgQIECAAAECBAgQIECAAAECBAgkUUBoMomzps8ECBAgQIAAAQIECBAgQIAAAQIEEi8gNJn4KTQAAgQIECBAgAABAgQIECBAgAABAkkUEJpM4qzpMwECBAgQIECAAAECBAgQIECAAIHECwhNJn4KDYAAAQIECBAgQIAAAQIECBAgQIBAEgWEJpM4a/pMgAABAgQIECBAgAABAgQIECBAIPECQpOJn0IDIECAAAECBAgQIECAAAECBAgQIJBEAaHJJM6aPhMgQIAAAQIECBAgQIAAAQIECBBIvIDQZOKn0AAIECBAgAABAgQIECBAgAABAgQIJFFAaDKJs6bPBAgQIECAAAECBAgQIECAAAECBBIvIDSZ+Ck0AAIECBAgQIAAAQIECBAgQIAAAQJJFBCaTOKs6TMBArEJNDY2hrpaW1tiq1FFBAgQ6EQg9asm9WunkyKyCRAgQGDtAtZvazdSggCBmASs32KC7KoaocmudBwjQKDqBfr37x/GuPqtt6p+pAZIgEDZBZpXvf2rJvVrp+yd0QECBAgkV8D6Lblzp+cEEidg/VaCKROaLAGyJggQqFyBQYMGhc6tWP5G5XZRzwgQqBaBt1auCEMRmqyW+TQOAgTKJmD9VjZ6DROoPQHrtxLMudBkCZA1QYBA5QpsuOGGoXMLX51buV3UMwIEqkXg9YXzw1DWX3/9ahmQcRAgQKA8AtZv5XHXKoGaFLB+K8G0C02WAFkTBAhUrsAmm2wSOvfqnBcqt4t6RoBAtQgsnPfvMJQxY8ZUy4CMgwABAuURsH4rj7tWCdSkgPVbCaZdaLIEyJogQKByBcaPHx869/xTMyu3i3pGgEC1CLz49KwwlNT/UVfLmIyDAAECZRCwfisDuiYJ1KqA9VsJZl5osgTImiBAoHIFPvCBD4TOzf7XjPa2tsrtpZ4RIJB8gY6OjlmPPBDGsdNOOyV/NEZAgACBcgpYv5VTX9sEaknA+q00sy00WRpnrRAgUKECw4cP32qrrVa9teLpmY9UaBd1iwCBqhAID45Y+vqiAQMGbLnlllUxIIMgQIBA2QSs38pGr2ECNSZg/VaaCReaLI2zVggQqFyBAw88MHTuvttvrNwu6hkBAskXeOKdLZOTJk1qaGhI/miMgAABAmUWsH4r8wRonkBtCFi/lWaehSZL46wVAgQqV2C//fbr3bv3o/ffueS1hZXbSz0jQCDJAuFuoBnT7wgj2HvvvZM8Dn0nQIBApQhYv1XKTOgHgeoVsH4r2dwKTZaMWkMECFSowODBg4844oiWlubrLr+gQruoWwQIJFwgXHJ/6dknx40bt+uuuyZ8KLpPgACBihCwfquIadAJAlUtYP1WsukVmiwZtYYIEKhcgWOOOWbYsGEP3X3LC7Pffn+uPwQIEIhRIFxy/+sVF4cKv/jFL7qbO0ZYVREgUOMC1m81/gUwfAJFFbB+KypvRuVCkxkgPhIgUIsCAwcO/MpXvhJG/qdLft7e3l6LBMZMgEDRBB5/6J6Xn58d3ri1xx57FK0RFRMgQKDmBKzfam7KDZhACQWs30qI3UtospTa2iJAoHIFDjjggG222SbccXnb9VdVbi/1jACBpAm8tXJ56mERX/rSl+rrrbuSNn/6S4BAZQtYv1X2/OgdgaQKWL+VeOYskUsMrjkCBCpUIIQMTjnllP79+1/72/NnTP9HhfZStwgQSJRAR3v7pT/93oJX5kyePNlTJhM1dTpLgEAyBKzfkjFPekkgUQLWb6WfLqHJ0ptrkQCBChXYfPPNf/zjH4c17m/OOe35p2ZWaC91iwCB5Ahcf+XFM/9536abbnraaafV1dUlp+N6SoAAgcQIWL8lZqp0lEBCBKzfSj9RQpOlN9ciAQKVK7D77rt/+9vfDm/r/uXp3/j3i89Wbkf1jACBihe4/x833XTN5eEdsuecc07YkV3x/dVBAgQIJFXA+i2pM6ffBCpPwPqtLHMiNFkWdo0SIFC5AocccsjRRx+9cvkbP/7m5x+88+bK7aieESBQqQLhbVp/+cOFvz33B+F93GeeeeYGG2xQqT3VLwIECFSJgPVblUykYRAon4D1W/nsezV873vfK2PzmiaQdIHbn8t8Zcqem08p6qCeXNiSUf82I5sycnwsUGDnnXceMmTIffdNf+S+O1a8uWyr7Xeur28osE6nEyBQIwLhuekXn/md6bdOC79Gfv7zn++yyy41MnDDJECAQHkFrN/K6691AokWqOX1W+kjDNlRFLsmE/3jo/MECBRFIDwS7uMf//hFF100fPjwO27881nf+uIzsx4tSksqJUCgigQ6Ojoee/DuM048+l8PTw/Pl/z9738f/j+5isZnKAQIEKhoAeu3ip4enSNQqQLWb5UwM3VhGiqhH/pAIKECJ990YEbPf7TvtIyceD9eM2tlRoWHb+sRZhkksX187bXXTjrppMceeyzUOH77XQ456thxm28dW+0qIkCgWgTCauqJRx746xUXv/z87DCm8D7u8N4bz5esluk1DgIEEiZg/ZawCdNdAmUSsH5LwZc+wpAdRWks03dAswQIEEiAwLrrrnvxxRffcsstv/rVr556/OHwd5sd37/T7ntst/NuQ9YZnoAB6GLRBNrb2kLd9Q3u9C8acRIqDivaV+e8EIKSM6bf8dKzT4Yub7nlll/+8pd33XVX7+NOwgTqIwEC1Slg/Vad8xrHqKzf4lBMfB3WbxU4hUKTFTgpukSAQAUJ1NfX77PPPnvttdf1118fwpRPPPpg+Bv6N3az8SFAOWbjzUZtsNGgIcP69OvX1NS7gvqtK0UWmP3Y21+DrSfsVuR2VF9BAq2tLc2r3npr5YrXF85fOO/fL8yeGYKSSxe/luri2LFjjzvuuD322CP80qigTusKAQIEalLA+q0mp33tg7Z+W7tR1ZWwfkvElLqhOxHTpJOVK5C9FdkN3ZU7WwX3bPXq1ffdd9+dd9559913v/HGGwXXp4IEC2y88cah9y+++GKCx6DrcQgMGDBg0qRJe++9d9gpGd7HHUeV6iBAgACBOAWs3+LUTHhd1m8Jn8DYum/9lk7phu50DWkCBAhUukCfPn3CI+TCn7a2tvAAyvvvvz9Epl566aWlS5euWLGipSXz5emVPh79y1dg8ODBvXu/vUk2vIJ52bJl+VbjvIQJNDY2hsdHhj/rr7/+mDFjNtlkk5122incwS0imbCJ1F0CBGpMwPqtxia80+Fav3VKU9UHrN8SMb1u6E7ENOkkAQKVJRAiERPe+VNZ3dKbkgiEwPSJJ564YMGC0Nr2229/9tlni0yVBF4jBAgQIECgIAHrt4L4En6y9VvCJ1D3q1zA45CqfIINjwABAgTiFZg+fXoqLhmqDYlwj3+89auNAAECBAgQIEAgXgHrt3g91UYgXgGhyXg91UaAAAEC1SwQLrlPnTo1fYTXXXddyEzPkSZAgAABAgQIEKgcAeu3ypkLPSGQU0BoMieLTAIECBAgkEMg/ZJ76rCNkzmYZBEgQIAAAQIEKkbA+q1ipkJHCOQWEJrM7SKXAAECBAhkCGRfck8VsHEyA8pHAgQIECBAgECFCFi/VchE6AaBLgSEJrvAcYgAAQIECKwRyL7knjpm4+QaIykCBAgQIECAQCUJWL9V0mzoC4HcAkKTuV3kEiBAgACBdIHOLrmnytg4mW4lTYAAAQIECBCoBAHrt0qYBX0gsFYBocm1EilAgAABAgR6dXbJPUVj46SvCAECBAgQIECg0gSs3yptRvSHQE4BocmcLDIJECBAgMAaga4vuafK2Ti5xkuKAAECBAgQIFBuAeu3cs+A9gl0V0BosrtSyhEgQIBAzQp0fck9xWLjZM1+PQycAAECBAgQqEAB67cKnBRdIpBTQGgyJ4tMAgQIECDwrkB3Lrmnito46UtDgAABAgQIEKgEAeu3SpgFfSDQTQGhyW5CKUaAAAECNSrQnUvuKZqwcTIUrlEmwyZAgAABAgQIVIyA9VvFTIWOEFi7gNDk2o2UIECAAIGaFej+JfcU0dSpU8MpNctl4AQIECBAgACBsgtYv5V9CnSAQI8EhCZ7xKUwgfIL1Ndl9qG9IzPHZwIE4hLo/iX3VIs2TsYlrx4CBAgQIECAQH4C1m/5uTmrBgWygwnZAYcSsAhNlgBZEwTiFGjM+lXRmv3rJM4G1UWgdgV6esk9JWXjZO1+Y4ycAAECBAgQKLeA9Vu5Z0D7SRJoyQomZAccSjAeockSIGuCQJwCTQ2Zta1utW0y08RnArEI9PSSe6pRGydjwVcJAQIECBAgQCAPAeu3PNCcUrMCzVnBhOyAQwlwhCZLgKwJAnEKDOid+WO7olloMk5hdRFICeR3yT11ro2TvkUECBAgQIAAgdILWL+V3lyLiRZYnhVMGJgVcCjBADNjHCVoUhMECBQiMLhP5sMml61uL6RC5xIgkFMgv0vuqapsnMxJKpMAAQIECBAgUFQB67ei8qq8+gSWrcoMJgzKCjiUYNRCkyVA1gSBOAWG9s38sZ33ZuZvkzjbUxeBmhQo5JJ7CszGyZr84hg0AQIECBAgUDYB67ey0Ws4sQLzl7dl9D074JBRoBgfM2McxWhDnQQIxCgwckDmwyZfW9nW0uae7hiNVUWgVyGX3FN8Nk76GhEgQIAAAQIESilg/VZKbW1VgUBzW8drKzP3OY0amBlwKMFIhSZLgKwJAnEKDOhdN7D3e+7p7ujoNX955i+UOJtUF4EaEyj8knsKzMbJGvviGC4BAgQIECBQNgHrt7LRazixAguWt4dgQvqfEGro3/SeaEP60eKlhSaLZ6tmAsUSGDOkMaPqOUtbM3J8JEAgb4HCL7mnmrZxMu8pcCIBAgQIECBAoEcC1m894lKYQBDIDiNsNDQz1FAaKKHJ0jhrhUCcAuPWyfx98eqbbYvfsnEyTmR11axAXJfcU4A2TtbsF8nACRAgQIAAgZIJWL+VjFpDVSMQAgghjJAxnHFCkxkiPhIg0JlA2GW93qDMB0DMXNDSWXn5BAh0XyCuS+6pFm2c7L68kgQIECBAgACB/ASs3/Jzc1YtC8ycnxlACEGG8Pi4spjYNVkWdo0SKFTgfaOaMqpYuLxtQdbbtTLK+EiAQNcC8V5yT7Vl42TX5o4SIECAAAECBAoRsH4rRM+5tSkQQgcLV2RumcwOMpQMJ/O20JI1rCECBAoRGNK3PtzW/dKS9zxi8p+vNO+1ad8+jeW50FHIcJxLoEIEZsyYsWLFitCZ/v3719fnuHq3fPnynF0dOHBgdn57e/vKlStDhaHaiRMnZheQQ4AAAQIECBAgUKCA9VuBgE6vNYHVrR0hdJAx6hBeCEGGjMySfRSaLBm1hgjELLDtyKa5y1rb0p4wubKl4/65q/9rXN96wcmYsVVXKwIhgNh1DHHKlCk5LS666KKc+TIJECBAgAABAgSKKmD9VlRelVeZQHtHr/vmrg6hg/RxNdT3CuGF9JwSp8sWEy3xODVHoPoE+jXVbTE889fHohXtj83LvABSfWM3IgIECBAgQIAAAQIECBAgQKBHAo/Oa35tRdr+pndODoGFEF7oUT3xFhaajNdTbQRKKjB+ZNPw/pk/xc8vbp3xanO4GOIPAQIECBAgQIAAAQIECBAgQCCECEKg4IXF73koXGAJIYUQWCivT2ZQo7y90ToBAj0SaKjrtdtGffpnXd8Iv27uemlVeIREj2pTmAABAgQIECBAgAABAgQIEKgygRAcCCGC7LhkCCaEkEIILJT3j9Bkef21TqBQgb6NdbuP7dOY9aMcNmnf9vwq7+wu1Nf5BAgQIECAAAECBAgQIEAgsQIhLBCCA9n3cYcwQggmhJBC2UfmNThlnwIdIFCowNC+9RM37HPfnNUZFYVH29790uqRAxu2G9U0rF9W8DKjtI8ECBAgQIAAAQIECBAgQIBAtQgsfqt95vyWhSvacg7o/Rv2CcGEnIdKnCk0WWJwzREoisAGgxvCNuyH/r26NfOBtr0WLm+7fXnb+oMaNhraOGpgfe+y79UuCoBKCRAgQIAAAQIECBAgQIAAgV7NbR0LlrfPWdr66pu5g5Jhv2SIS64/uKFCsIQmK2QidINAoQIhOjl5k77TX14dNktm1xV+JYW/dXW91u1fv97AhiF96wf2ruvdWNdUX1df/u3b2f2VQ4AAAQIECBAgQIAAAQIECKxFILzfpqW9o7m1Y3lzx7JV7fOXt722sr0jR1Tg3XrC8yXDfdwVsl8y1ae6ji76u5bhO0yAQK+TbzowQ+FH+07LyCnlx1WtHeHO7tdXZm2eLGUntEWAAAECBAgQIECAAAECBAhUmEB4H3e44bK8z5fMjqJUxF3lFTZTukMgwQLhV8yHN+47fkRTgx/uBE+jrhMgQIAAAQIECBAgQIAAgdgEQoggBApCuKC8ccmc43FDd04WmQQSLBAeJrntqKZNhzXOWtjy0pLWBI9E1wkQIECAAAECBAgQIECAAIHCBDZep3GbkU39mir0aW5Ck4VNr7MJVKpA+KWzywa9txje+K8FLfM7efZtpfZdvwgQIECAAAECBAgQIECAAIFCBdYb1PC+UU3hbROFVlTM84Umi6mrbgLlFgi/gD40tk94Gm7YPjl3WWtIlLtH2idAgAABAgQIECBAgAABAgSKKBBee7vR0MZxQxsH9K7QnZLpgxeaTNeQJlCdAuG3UrjFO/wNL+9esLxt6ar2N1eHt3e1t7T1am3vCO/z8ocAAQIECBAgQIAAAQIECBBInEB9Xa/G+rqmhl4De9cP6lMXXr09amBDeA13ggYiNJmgydJVAoUKhF9P4RkThdbifAI1LDBlypSco7/yyitz5sskQIAAAQIECBAor4D1W3n9tU5grQIVfbf5WnuvAAECBAgQIECAAAECBAgQIECAAAECCRUQmkzoxOk2AQIECBAgQIAAAQIECBAgQIAAgWQLCE0me/70ngABAgQIECBAgAABAgQIECBAgEBCBYQmEzpxuk2AAAECBAgQIECAAAECBAgQIEAg2QJCk8meP70nQIAAAQIECBAgQIAAAQIECBAgkFABocmETpxuEyBAgAABAgQIECBAgAABAgQIEEi2gNBksudP7wkQIECAAAECBAgQIECAAAECBAgkVEBoMqETp9sECBAgQIAAAQIECBAgQIAAAQIEki0gNJns+dN7AgQIECBAgAABAgQIECBAgAABAgkVEJpM6MTpNgECBAgQIECAAAECBAgQIECAAIFkCwhNJnv+9J4AAQIECBAgQIAAAQIECBAgQIBAQgWEJhM6cbpNgAABAgQIECBAgAABAgQIECBAINkCQpPJnj+9J0CAAAECBAgQIECAAAECBAgQIJBQAaHJhE6cbhMgQIAAAQIECBAgQIAAAQIECBBItoDQZLLnT+8JECBAgAABAgQIECBAgAABAgQIJFRAaDKhE6fbBAgQIECAAAECBAgQIECAAAECBJIt0Jjs7us9AQIECBAoocCVV15ZwtY0RYAAAQIECBAgUKiA9Vuhgs4nUGQBuyaLDKx6AgQIECBAgAABAgQIECBAgAABAgRyCQhN5lKRR4AAAQIECBAgQIAAAQIECBAgQIBAkQWEJosMrHoCBAgQIECAAAECBAgQIECAAAECBHIJCE3mUpFHgAABAgQIECBAgAABAgQIECBAgECRBYQmiwysegIECBAgQIAAAQIECBAgQIAAAQIEcgkITeZSkUeAAAECBAgQIECAAAECBAgQIECAQJEFhCaLDKx6AgQIECBAgAABAgQIECBAgAABAgRyCQhN5lKRR4AAAQIECBAgQIAAAQIECBAgQIBAkQWEJosMrHoCBAgQIECAAAECBAgQIECAAAECBHIJCE3mUpFHgAABAgQIECBAgAABAgQIECBAgECRBYQmiwysegIECBAgQIAAAQIECBAgQIAAAQIEcgkITeZSkUeAAAECBAgQIECAAAECBAgQIECAQJEFhCaLDKx6AgQIECBAgAABAgQIECBAgAABAgRyCQhN5lKRR4AAAQIECBAgQIAAAQIECBAgQIBAkQWEJosMrHoCBAgQIECAAAECBAgQIECAAAECBHIJCE3mUpFHgAABAgQIECBAgAABAgQIECBAgECRBYQmiwysegIECBAgQIAAAQIECBAgQIAAAQIEcgkITeZSkUeAAAECBAgQIECAAAECBAgQIECAQJEFhCaLDKx6AgQIECBAgAABAgQIECBAgAABAgRyCQhN5lKRR4AAAQIECBAgQIAAAQIECBAgQIBAkQWEJosMrHoCBAgQIECAAAECBAgQIECAAAECBHIJCE3mUpFHgAABAgQIECBAgAABAgQIECBAgECRBYQmiwysegIECBAgQIAAAQIECBAgQIAAAQIEcgkITeZSkUeAAAECBAgQIECAAAECBAgQIECAQJEFhCaLDKx6AgQIECBAgAABAgQIECBAgAABAgRyCQhN5lKRR4AAAQIECBAgQIAAAQIECBAgQIBAkQWEJosMrHoCBAgQIECAAAECBAgQIECAAAECBHIJCE3mUpFHgAABAgQIECBAgAABAgQIECBAgECRBYQmiwysegIECBAgQIAAAQIECBAgQIAAAQIEcgkITeZSkUeAAAECBAgQIECAAAECBAgQIECAQJEFhCaLDKx6AgQIECBAgAABAgQIECBAgAABAgRyCQhN5lKRR4AAAQIECBAgQIAAAQIECBAgQIBAkQWEJosMrHoCBAgQIECAAAECBAgQIECAAAECBHIJCE3mUpFHgAABAgQIECBAgAABAgQIECBAgECRBYQmiwysegIECBAgQIAAAQIECBAgQIAAAQIEcgkITeZSkUeAAAECBAgQIECAAAECBAgQIECAQJEFhCaLDKx6AgQIECBAgAABAgQIECBAgAABAgRyCQhN5lKRR4AAAQIECBAgQIAAAQIECBAgQIBAkQWEJosMrHoCBAgQIECAAAECBAgQIECAAAECBHIJCE3mUpFHgAABAgQIECBAgAABAgQIECBAgECRBYQmiwysegIECBAgQIAAAQIECBAgQIAAAQIEcgkITeZSkUeAAAECBAgQIECAAAECBAgQIECAQJEFGotcv+oJECBAgAABAgQIECBAgEAiBa6//vpFixYlsus6TaCWBEaMGHHwwQfX0oiraqx2TVbVdBoMAQIECBAgQIAAAQIECMQlIC4Zl6R6CBRVwI9qUXmLXbldk8UWVj8BAgQIECBAgAABAgQIJFjgiK0mJ7j33ev61bPvCAWre6S1MMb02a6d8aZGmj526WQJ2DWZrPnSWwIECBAgQIAAAQIECBAgQIAAAQJVImDXZJVMpGEQIFD5Ap5VVPlzpIcEIgFPLIooJAgQIECAAAECBAgUT8CuyeLZqpkAAQLvEfAAlPdw+ECgsgX8wFb2/OgdAQIECBAgQIBAlQjYNVklE2kYBAgkRaC6n+CTmoVae66NOU3KT1/3++mJRd23UpIAAQIECBAgQIBAIQJ2TRai51wCBAgQIECAAAECBAgQIECAAAECBPIUEJrME85pBAgQIECAAAECBAgQIECAAAECBAgUIiA0WYiecwkQIECAAAECBAgQIECAAAECBAgQyFNAaDJPOKcRIECAAAECBAgQIECAAAECBAgQIFCIgNBkIXrOJUCAAAECBAgQIECAAAECBAgQIEAgTwGhyTzhnEaAAAECBAgQIECAAAECBAgQIECAQCECQpOF6DmXAAECBAgQIECAAAECBAgQIECAAIE8BYQm84RzGgECBAgQIECAAAECBAgQIECAAAEChQgITRai51wCBAgQIECAAAECBAgQIECAAAECBPIUEJrME85pBAgQIECAAAECBAgQIECAAAECBAgUIiA0WYiecwkQIECAAAECBAgQIECAAAECBAgQyFNAaDJPOKcRIECAAAECBAgQIECAAAECBAgQIFCIgNBkIXrOJUCAAAECBAgQIECAAAECBAgQIEAgTwGhyTzhnEaAAAECBAgQIECAAAECBAgQIECAQCECQpOF6DmXAAECBAgQIECAAAECBAgQIECAAIE8BYQm84RzGgECBAgQIECAAAECBAgQIECAAAEChQgITRai51wCBAgQIECAAAECBAgQIECAAAECBPIUEJrME85pBAgQIECAAAECBAgQIECAAAECBAgUIiA0WYiecwkQIECAAAECBAgQIECAAAECBAgQyFNAaDJPOKcRIECAAAECBAgQIECAAAECBAgQIFCIgNBkIXrOJUCAAAECBAgQIECAAAECBAgQIEAgTwGhyTzhnEaAAAECBAgQIECAAAECBAgQIECAQCECQpOF6DmXAAECBAgQIECAAAECBAgQIECAAIE8BYQm84RzGgECBAgQIECAAAECBAgQIECAAAEChQgITRai51wCBAgQIECAAAECBAgQIECAAAECBPIUEJrME85pBAgQIECAAAECBAgQIECAAAECBAgUIiA0WYiecwkQIECAAAECBAgQIECAAAECBAgQyFNAaDJPOKcRIECAAAECBAgQIECAAAECBAgQIFCIgNBkIXrOJUCAAAECBAgQIECAAAECBAgQIEAgT4HGPM9zGgECBMok0Hr7yx0t7fk13rDjyPpRA/I711kECBAgQIAAAQI9FbBy66mY8gQIEKg1AaHJWptx4yWQcIGOjtZ/zu/Vkc8o6vo1Nn54TD5nOocAAQIECBAgQCAPASu3PNCcQoAAgRoTEJqssQk3XAIJF+hY2ZoelwzRxoZt160fO7hXn8ZeDXW96t4eXvtLb7TeNTd7oI2TNwrls/PlECBAgAABAgQIFEPAyq0YquokQIBAlQn4v/Qqm1DDIVDlAh3LW6IRhlBj486jejW895m5be0t056PykSJ+o0GN7xvRPRRggABAgQIECBAoNgCVm7FFlY/AQIEqkBAaLIKJtEQCNSSwIrm1Gib9h7XsNOo7JG33v9qx+JVmfkNdU0fGZeZ6TMBAgQIECBAgEBRBazcisqrcgIECFSFwHt3G1XFkAyCAIEqFuhY0RpGF/Y/5oxLhqBk6/3zsoff+IH164b3y86XQ4AAAQIECBAgUDwBK7fi2aqZAAECVSMgNFk1U2kgBGpCoOOda+8NO+bYLxnG33Lzi73aMl/eXbdO38Zd168JHYMkQIAAAQIECFSSgJVbJc2GvhAgQKBCBYQmK3RidIsAgdwCb7XWjexfP3pA9tG2Wa+1v/xGdv7bt3I3+l2XDSOHAAECBAgQIFBkASu3IgOrngABAlUg4FmTVTCJhkCghgQa3j+6YcJ62QPuWNXa+o852fkN26xbP25Idr4cAgQIECBAgACBYgtYuRVbWP0ECBCoAgGhySqYREMgUEMCdf2bco629Y45HSvXvLw7Vaaub2PjnhvlLC+TAAECBAgQIECg2AJWbsUWVj8BAgSqQMBNjlUwiYZAoNYF2ue+2fb4omyFxkljOlsQZxeWQ4AAAQIECBAgUAIBK7cSIGuCAAECCRIQmkzQZOkqAQK5BNo63n77Tdaf+g0HNewwMitbBgECBAgQIECAQPkErNzKZ69lAgQIVKaA0GRlzoteESDQXYHWh+Z1vPZWZun6uqaPbJyZ6TMBAgQIECBAgEBZBazcysqvcQIECFSigGdNVuKs6BMBAt0U6Fi6qnX6K9mFGyeOrhvRLzu/05z2jrbZi+uG9qlff2CnZRwgQIAAAQIECBAoQKDQlVtre/uLy9pfX1U3pHf9RoPrBuR+BHkBHXQqAQIECJRBQGiyDOiaJEAgLoGWm1/q1dqeUVuIMDZ+cIOMzE4/Nre1Praw7eH5HW82N07eSGiyUygHCBAgQIAAAQKFCRSycmt/+Y2Wv73QsWx11IXG948Oi7foowQBAgQIJFRAaDKhE6fbBAj0anvq9XDlPBuiae9xvRrX/rSKjuXNbf+c3/rowl6r27IrkUOAAAECBAgQIBCjQCErt47X32q+7pmMNVvrg/PCkq/xQxvG2ElVESBAgEDpBdb+f++l75MWCRAgsFaBjlVtrbe9nF2sYavh9ZsMzc5P5XQsXBnCkW+n2ztarn22Y0VrXT9XaDrTkk+AAAECBAgQiEegwJVbyx1ze7W0148d3LD18F5Na/4ftm3Ggl4dHfF0US0ECBAgUCYB/09eJnjNEiBQmEDrXXM6VrRk1tGnoXGvsZmZaZ9bH1nQ/u83G3Zer1d9Xe/PbBOOtD+3tPnPT6cVkSRAgAABAgQIEIhZoJCVW/0Ww9rnvNH7U1unHrzTuHDl6stmpvrXsaq1feHK+lEDYu6u6ggQIECghAJrrjiVsFFNESBAoCCB9leWt4UbsbP+NH14TN3Azh+I3tGr/dkldYN6v+e8vg3v+egDAQIECBAgQIBArAKFrtx6N/SeMj56IHjdyP5h+2TUwbp+na/9okISBAgQIFDBAkKTFTw5ukaAQE6BcC/2zS9mH6kfPbBhx1HZ+VFO2+zXw0bLusF9ohwJAgQIECBAgACB4goUvHKr69tQv9579kWG13On+hxe0p151bm4g1E7AQIECMQvIDQZv6kaCRAoqkBreJv2wpWZTdTVNe6zca+6zOzoc7jfp/XWt59NWTf4vbsmoxISBAgQIECAAAECcQsUY+XW8WZzqpsN24/sYvkX91DUR4AAAQJFERCaLAqrSgkQKJJAx7LVrff+O7vyxl3Wqx/VPzv/3ZyW9pbrn+tY+fazKV1a71TJAQIECBAgQIBArAJFWbl1dIRnhYdu1g3t2/iB0bH2V2UECBAgUAYBr8EpA7omCRDIW6Dl1pfC+xkzTg8bIRs/tGFGZvQxrIlbpj7bPn9FKseuyUhGggABAgQIECBQVIFirNzanlnSsbw5vNKw6eDNevX20PCiTqDKCRAgUAoBoclSKGuDAIFYBNqeXpy6SJ5RW9N/j+vVlLkHPNzBHe77bnt8UdtTr/dq74hOsWsyopAgQIAAAQIECBRPoCgrt5b21jvmhD437bFR/ej3PICyeANRMwECBAgUVUBosqi8KidAID6B5rbW295+WGT2n5awQn1nkfr2oRCFbAmPW2/v1dyWXTLkCE3mZJFJgAABAgQIEIhToDgrt5bbXu5Yurpx9w0adl4vzt6qiwABAgTKJyA0WT57LRMg0BOB1kcWRo88zzivY/GqjJxOP/ZtcONPpzgOECBAgAABAgRiEijGyq3tydfbHl/YOHH0mif5rG5rnvps749vFVOvVUOAAAECZRAQmiwDuiYJEMhDIDzm3JPO83BzCgECBAgQIECg9AKxr9w6Fq1suemFugFNdesNCDHKt0fU3Nb2xGulH5oWCRAgQCBeAaHJeD3VRoBA0gRa016q05aWTto49JcAAQIECBAgUK0C4Rnizdc+m3poT8tfn0sfZuMu7uxO95AmQIBA8gQyXxyRvBHoMQECBAoQaH/pjejs9jlvRmkJAgQIECBAgACBihAITxGf+mzH0twP8Kkb5WU4FTFLOkGAAIG8BeyazJvOiQQIJFug5e8vhrhk+jK3/aVlq3/5aP1Ww5r2Gpvssek9AQIECBAgQKBaBFofnt/+8ppryRnDqheazBDxkQABAkkTEJpM2ozpLwECMQk07bNxTDWphgABAgQIECBAoFgCje8fHf4Wq3b1EiBAgEC5BdzQXe4Z0D4BAgQIECBAgAABAgQIECBAgACBmhQQmqzJaTdoAgQIECBAgAABAgQIECBAgAABAuUWEJos9wxonwABAgQIECBAgAABAgQIECBAgEBNCghN1uS0GzQBAgQIECBAgAABAgQIECBAgACBcgsITZZ7BrRPgAABAgQIECBAgAABAgQIECBAoCYFhCZrctoNmgABAgQIECBAgAABAgQIECBAgEC5BYQmyz0D2idAgAABAgQIECBAgAABAgQIECBQkwJCkzU57QZNgAABAgQIECBAgAABAgQIECBAoNwCQpPlngHtEyBAgAABAgQIECBAgAABAgQIEKhJAaHJmpx2gyZAgAABAgQIECBAgAABAgQIECBQbgGhyXLPgPYJECBAgAABAgQIECBAgAABAgQI1KRAY02O2qAJECBAgAABAgQIECBAgEC3BK6efUe3yiW/UC2MtBbGmP5NrLXxpo9dOikCdk0mZab0kwABAgQIECBAgAABAgRKKjBixIiStqcxAgTyEvCjmhdbpZxk12SlzIR+ECBAgAABAgQIECBAgEBFCRx88MEV1R+dIUCAQPUJ2DVZfXNqRAQIECBAgAABAgQIECBAgAABAgQSICA0mYBJ0kUCBAgQIECAAAECBAgQIECAAAEC1ScgNFl9c2pEBAgQIECAAAECBAgQIECAAAECBBIg4FmTCZgkXSRAoJoEaucdeUZaTd/b1FhqZ06rb+6MiAABAgQIECBAgEBlCtg1WZnzolcECFShgNfGVeGkGlL1CviBrd65NTICBAgQIECAAIEKErBrsoImQ1cIEKhuAW94rO75NToCBAgQIECAAAECBAgQ6KmAXZM9FVOeAAECBAgQIECAAAECBAgQIECAAIEYBIQmY0BUBQECBAgQIECAAAECBAgQIECAAAECPRUQmuypmPIECBAgQIAAAQIECBAgQIAAAQIECMQgIDQZA6IqCBAgQIAAAQIECBAgQIAAAQIECBDoqYDQZE/FlCdAgAABAgQIECBAgAABAgQIECBAIAYBockYEFVBgAABAgQIECBAgAABAgQIECBAgEBPBYQmeyqmPAECBAgQIECAAAECBAgQIECAAAECMQgITcaAqAoCBAgQIECAAAECBAgQIECAAAECBHoqIDTZUzHlCRAgQIAAAQIECBAgQIAAAQIECBCIQUBoMgZEVRAgQIAAAQIECBAgQIAAAQIECBAg0FMBocmeiilPgAABAgQIECBAgAABAgQIECBAgEAMAkKTMSCqggABAgQIECBAgAABAgQIECBAgACBngoITfZUTHkCBAgQIECAAAECBAgQIECAAAECBGIQEJqMAVEVBAgQIECAAAECBAgQIECAAAECBAj0VEBosqdiyhMgQIAAAQIECBAgQIAAAQIECBAgEIOA0GQMiKogQIAAAQIECBAgQIAAAQIECBAgQKCnAkKTPRVTngABAgQIECBAgAABAgQIECBAgACBGASEJmNAVAUBAgQIECBAgAABAgQIECBAgAABAj0VEJrsqZjyBAgQIECAAAECBAgQIECAAAECBAjEICA0GQOiKggQIECAAAECBAgQIECAAAECBAgQ6KmA0GRPxZQnQIAAAQIECBAgQIAAAQIECBAgQCAGAaHJGBBVQYAAAQIECBAgQIAAAQIECBAgQIBATwWEJnsqpjwBAgQIECBAgAABAgQIECBAgAABAjEICE3GgKgKAgQIECBAgAABAgQIECBAgAABAgR6KiA02VMx5QkQIECAAAECBAgQIECAAAECBAgQiEFAaDIGRFUQIECAAAECBAgQIECAAAECBAgQINBTAaHJnoopT4AAAQIECBAgQIAAAQIECBAgQIBADAJCkzEgqoIAAQIEalOg7Z0/tTl2oyZAgAABAgQIJEvAyi1Z86W3tSMgNFk7c22kBAgQIBCzwH3v/Im5UtURIECAAAECBAgUQcDKrQioqiQQg0BjDHWoggABAgQI1J5AuPB+3XXXhXHvtttuDQ0NtQdgxAQIECBAgACBxAhYuSVmqnS09gTsmqy9OTdiAgQIEIhDYPr06Qve+ROuwMdRnzoIECBAgAABAgSKJWDlVixZ9RIoWEBosmBCFRAgQIBA7QmEC+9Tp05NjTvsnQwfa8/AiAkQIECAAAECyRCwckvGPOllrQoITdbqzBs3AQIECBQgkLrwnqogbJ20cbIAS6cSIECAAAECBIorYOVWXF+1EyhMQGiyMD9nEyBAgEDtCaRfeE+N3sbJ2vsWGDEBAgQIECCQDAErt2TMk17WsIDQZA1PvqETIECAQF4C6RfeUxXYOJkXpJMIECBAgAABAkUXsHIrOrEGCBQmIDRZmJ+zCRAgQKDGBLIvvKcAbJyssS+C4RIgQIAAAQIJELByS8Ak6WLNCwhN1vxXAAABAgQI9EQg+8J76mwbJ3uiqCwBAgQIECBAoBQCVm6lUNYGgcIEhCYL83M2AQIECNSSQGcX3lMGNk7W0nfBWAkQIECAAIFKF7Byq/QZ0j8C7wgITfoiECBAgACB7gp0duE9db6Nk911VI4AAQIECBAgUHwBK7fiG2uBQAwCQpMxIKqCAAECBGpBoOsL7ykBGydr4ZtgjAQIECBAgEDlC1i5Vf4c6SGBlIDQpG8CAQIECBDolkDXF95TVdg42S1KhQgQIECAAAECRRawcisysOoJxCYgNBkbpYoIECBAoIoFunPhPTV8Gyer+GtgaAQIECBAgEAiBKzcEjFNOkkgJSA06ZtAgAABAgTWLtCdC++pWsLGyVB47TUqQYAAAQIECBAgUBwBK7fiuKqVQFEEhCaLwqpSAgQIEKgmge5feE+NeurUqeGUahIwFgIECBAgQIBAUgSs3JIyU/pJICUgNOmbQIAAAQIE1iLQ/QvvqYpsnFwLqMMECBAgQIAAgaIJWLkVjVbFBIoiIDRZFFaVEiBAgEDVCPT0wntq4DZOVs0XwEAIECBAgACBBAlYuSVosnSVQEpAaNI3gQABAgQIdCXQ0wvvqbpsnOzK1DECBAgQIECAQHEErNyK46pWAkUUEJosIq6qCRAgQCDpAvldeE+N2sbJpM++/hMgQIAAAQLJErByS9Z86S2BlIDQpG8CAQIECBDoVCC/C++p6myc7JTVAQIECBAgQIBAEQSs3IqAqkoCRRcQmiw6sQYIECBAIKEChVx4Tw3ZxsmETr1uEyBAgAABAokTsHJL3JTpMIGUgNCkbwIBAgQIEMgtUMiF91SNNk7mlpVLgAABAgQIEIhbwMotblH1ESiRgNBkiaA1Q4AAAQLJEij8wntqvDZOJmve9ZYAAQIECBBIooCVWxJnTZ8JpASEJn0TCBAgQIBADoHCL7ynKrVxMgeuLAIECBAgQIBArAJWbrFyqoxASQWEJkvKrTECBAgQSIRAXBfeU4O1cTIRk66TBAgQIECAQEIFrNwSOnG6TSAlIDTpm0CAAAECBDIF4rrwnqrXxslMX58JECBAgAABAvEJWLnFZ6kmAmUQEJosA7omCRAgQKCSBeK98J4aqY2TlTzj+kaAAAECBAgkV8DKLblzp+cEUgKNIAgQIECAAIF0gRkzZqxYsSLk9O/fv74+xzW85cuXp5eP0gMHDozSUaK9vX3lypWhwlDtxIkTo3wJAgQIECBAgACBwgWs3Ao3VAOB8goITZbXX+sECBAgUHECIYDYdQxxypQpOTt90UUX5cyXSYAAAQIECBAgUCQBK7ciwaqWQMkEcmwGKVnbGiJAgAABAgQIECBAgAABAgQIECBAoGYFhCZrduoNnAABAgQIECBAgAABAgQIECBAgEA5BYQmy6mvbQIECBAgQIAAAQIECBAgQIAAAQI1KyA0WbNTb+AECBAgQIAAAQIECBAgQIAAAQIEyikgNFlOfW0TIECAAAECBAgQIECAAAECBAgQqFkBocmanXoDJ0CAAAECBAgQIECAAAECBAgQIFBOAaHJcuprmwABAgQIECBAgAABAgQIECBAgEDNCghN1uzUGzgBAgQIECBAgAABAgQIECBAgACBcgoITZZTX9sECBAgQIAAAQIECBAgQIAAAQIEalZAaLJmp97ACRAgQIAAAQIECBAgQIAAAQIECJRTQGiynPraJkCAAAECBAgQIECAAAECBAgQIFCzAkKTNTv1Bk6AAAECBAgQIECAAAECBAgQIECgnAJCk+XU1zYBAgQIECBAgAABAgQIECBAgACBmhUQmqzZqTdwAgQIECBAgAABAgQIECBAgAABAuUUEJosp762CRAgQIAAAQIECBAgQIAAAQIECNSsgNBkzU69gRMgQIAAAQIECBAgQIAAAQIECBAop0BjORvXNgECJRRoa2ubM2fO888/P2/evIULFy5evHjVqlWrV69ub28vYS80RaCaBY477rhqHp6xESBAgAABAgSqSMDKrYoms6aHUl9f36dPn759+w4bNmzkyJGjR4/ebLPNxowZ09DQkBQXocmkzJR+EshToLW19cknn3zooYdmzZrV3NycZy1OI0CAAAECBAgQIECAAAECBCpMIGw2euudP0uWLAlbkVK9692797bbbjtx4sStt966sbHSQ3+V3r8Km3HdIZAkgbBN8oEHHrjxxhuXLl2apH7rK4GKFxg6dGjF91EHCRAgQIAAAQIE3hawcvM9qEGBsC3pkXf+hO///vvv/4EPfKCSN1EKTdbgV9SQq1+go6NjxowZ06ZNW7RoUfWP1ggJECBAgAABAgQIECBAgACBLIGwUemKK6649dZbDzjggAkTJtTV1WUVKX+G0GT550APCMQrEJ4jeemll86dOze72qGDB2y96YabjBk5YtjgYUMG9uvbu3dTY2NynkCRPSI5BAgQIECAAAECBAgQIECgZgVa29qaW1rfWtW8eNnyRYvfeH7OgqdeeGXpGyvSQUKU4LLLLgsBys997nPheZTphyohLTRZCbOgDwRiE3jqqacuueSS8KCJ9BpHj1hn9522HL/pBuutO7QyL5Kk91aaAAECBAgQIECAAAECBAgQ6I5A2GwU/vbv22f40EGbjx29245bhtso57+29KnnX5n+yNPzFi2JKgkbmH7yk58cffTR48ePjzIrISE0WQmzoA8EYhAIv33uuOOOa6+9NiSi6kIscv9JO+209cYikpGJBAECBAgQIECAAAECBAgQqFaB8L//YX9S+Dv5/ds88uSLN975SIhUpgYbtjH98pe/POywwyZNmlQ5UQKhyWr9KhpXbQmEcOTVV1991113RcPu26fpyH1322W7zerrK/FZElE/JQgQIECAAAECBAgQIECAAIHYBULwccI2m+w4fuOHZz73p5vuW7W6JTQRogfXXHNNuMX7iCOOqJDopNBk7FOvQgJlEAj7JdPjkqOGD/nCJ/YO/5ahK5okQIAAAQIECBAgQIAAAQIEKkMgbFd6//abj9tw5K+vumXB68tSnQoBhPDQycmTJ1dCH+sroRP6QIBAIQLh+ZLhPu6ohu222OibRx8sLhmBSBAgQIAAAQIECBAgQIAAgVoWCCGCECjYdvMxEcKf//znEEyIPpYxITRZRnxNE4hBIGzDDu+9iZ4vGeKSxx753+HV2zFUrQoCBAgQIECAAAECBAgQIECgKgRCoOALH987ik6GMMKll14aQgplH5zQZNmnQAcI5C+Q+lUSvY87XAb5n0Mnebhk/qDOJECAAAECBAgQIECAAAECVSoQwgWf/ejk6CbLlStXhuhktNWpXIMWmiyXvHYJxCAwY8aMuXPnpioK770Jz5e0XzIGVlUQIECAAAECBAgQIECAAIFqFHh77+Qn9g4BhNTgQkghBBbKO1ChyfL6a51A/gJtbW3Tpk2Lzg/v444ufUSZEgQIECBAgAABAgQIECBAgACBSCCEDo7Yd7foYwgshPBC9LH0CaHJ0ptrkUA8Ag888MCiRYtSda237tBdttssnnrVQoAAAQIECBAgQIAAAQIECFSvwMTtNov2NoXAQggvlHGsQpNlxNc0gfwFWltbb7zxxuj8/Sft5BGTkYYEAQIECBAgQIAAAQIECBAg0JlACCCEMEJ0NIQXQpAh+ljihNBkicE1RyAegSeffHLp0qWpukaPWGenrTeOp161ECBAgAABAgQIECBAgAABAtUuMGGbTUIwITXKEF4IQYZyjVhoslzy2iVQkMBDDz0Unb/7TlvW1dVFHyUIECBAgAABAgQIECBAgAABAl0IhDBCCCZEBdKDDFFmaRJCk6Vx1gqBOAXCE2pnzZoV1Th+0w2itAQBAgQIECBAgAABAgQIECBAYK0C6cGEEGQo18twhCbXOlMKEKg4gblz5zY3N6e6NXTwgPAOnIrrog4RIECAAAECBAgQIECAAAECFSwQgglDBvVPdTAEGUKooSydFZosC7tGCRQk8Nxzz0Xnj99kA3dzRxoSBAgQIECAAAECBAgQIECAQHcEQjAhhBSikumhhiizBAmhyRIga4JAzALz5s2Latx0o1FRWoIAAQIECBAgQIAAAQIECBAg0E2BzcauF5WcP39+lC5lQmiylNraIhCPwMKFC6OKRgwbHKUlCBAgQIAAAQIECBAgQIAAAQLdFFh3nTUhhQULFnTzrHiLCU3G66k2AqUQWLx4cdTMsCEDo7QEAQIECBAgQIAAAQIECBAgQKCbAsOHrgkppIcaunl6LMWEJmNhVAmBkgqsWrUqaq9f395RWoIAAQIECBAgQIAAAQIECBAg0E2Bvn3WhBRWr17dzbPiLSY0Ga+n2giUQiD990XvpsZSNKkNAgQIECBAgAABAgQIECBAoLoE+vReE1JIDzWUcpRCk6XU1haBeATa29ujihobGqK0BAECBAgQIECAAAECBAgQIECgmwLpIYW2trZunhVvMaHJeD3VRoAAAQIECBAgQIAAAQIECBAgQIBAtwSEJrvFpBABAgQIECBAgAABAgQIECBAgAABAvEKCE3G66k2AgQIECBAgAABAgQIECBAgAABAgS6JSA02S0mhQgQIECAAAECBAgQIECAAAECBAgQiFdAaDJeT7URIECAAAECBAgQIECAAAECBAgQINAtAaHJbjEpRIAAAQIECBAgQIAAAQIECBAgQIBAvAJCk/F6qo0AAQIECBAgQIAAAQIECBAgQIAAgW4JCE12i0khAgQIECBAgAABAgQIECBAgAABAgTiFRCajNdTbQQIECBAgAABAgQIECBAgAABAgQIdEtAaLJbTAoRIECAAAECBAgQIECAAAECBAgQIBCvgNBkvJ5qI0CAAAECBAgQIECAAAECBAgQIECgWwJCk91iUogAAQIECBAgQIAAAQIECBAgQIAAgXgFhCbj9VQbAQIECBAgQIAAAQIECBAgQIAAAQLdEhCa7BaTQgQIECBAgAABAgQIECBAgAABAgQIxCsgNBmvp9oIECBAgAABAgQIECBAgAABAgQIEOiWgNBkt5gUIkCAAAECBAgQIECAAAECBAgQIEAgXgGhyXg91UaAAAECBAgQIECAAAECBAgQIECAQLcEhCa7xaQQAQIECBAgQIAAAQIECBAgQIAAAQLxCghNxuupNgIECBAgQIAAAQIECBAgQIAAAQIEuiUgNNktJoUIECBAgAABAgQIECBAgAABAgQIEIhXQGgyXk+1ESBAgAABAgQIECBAgAABAgQIECDQLQGhyW4xKUSAAAECBAgQIECAAAECBAgQIECAQLwCQpPxeqqNAAECBAgQIECAAAECBAgQIECAAIFuCQhNdotJIQIECBAgQIAAAQIECBAgQIAAAQIE4hUQmozXU20ECBAgQIAAAQIECBAgQIAAAQIECHRLQGiyW0wKESBAgAABAgQIECBAgAABAgQIECAQr4DQZLyeaiNAgAABAgQIECBAgAABAgQIECBAoFsCQpPdYlKIAAECBAgQIECAAAECBAgQIECAAIF4BYQm4/VUGwECBAgqF4K9AAA/ZElEQVQQIECAAAECBAgQIECAAAEC3RIQmuwWk0IECBAgQIAAAQIECBAgQIAAAQIECMQrIDQZr6faCBAgQIAAAQIECBAgQIAAAQIECBDoloDQZLeYFCJAgAABAgQIECBAgAABAgQIECBAIF4Bocl4PdVGgAABAgQIECBAgAABAgQIECBAgEC3BIQmu8WkEAECBAgQIECAAAECBAgQIECAAAEC8QoITcbrqTYCBAgQIECAAAECBAgQIECAAAECBLolIDTZLSaFCBAgQIAAAQIECBAgQIAAAQIECBCIV6Ax3urURoAAAQIECBAgQKCoAi0trXNemd+/X9+RI4Y11K+50L7o9aWh3RHDh8bS+oyZs3939d9mzn7+lz88cestNu6izjdXrLz6r7c9/sRzc+ct6N+375abbnT4gXuO33xcF6d0/9DTz88ZN2a9Pr17d/+Uaiq5urn5vEuvefDRJybusPVXjz6iZh2qaU6NhQABAgQIZAgITWaA+EiAAAECBAgQIFCJAouXvnHm+b+/f8asF+e82trWFrrY2NCww7ZbHPyRD+2/5+7rjRz+uRN+uNEGo0IksZDer3xr1XV/u/Pya/72xNMvpOpZ+sbyLiq8curNp/3ssjeWr4jK3HHfjIuu+MtRH9v3h9/6Yn19XZSfR2LGv2Yf+JkTv3/iMcd88uA8Tq+CU/7y97t/dtFVYSDTH/7XRhusd+TBe1XBoAyBAAECBAgQSBcQmkzXkCZAgAABAgQIEKhEgWtu+Mf3zr54ybI3Q+eaGhs3Hbdhc3PLq/MX/fPxp8Lf75518brDhoRdkyE0WUjvV6xcNeEjn0mPM3Zd2zkX//GsC/7Q1NR4/o9O3HG7Lafdcu8Z510eTmlv7wjBzQ1Hj/zSZw/ruoauj15y5V9DgVDV0VMOqqsrKMrZdUMVe/Tp516O+jb7+ZeitAQBAgQIECBQNQJrboGpmiEZCAECBAgQIECAQDUJ3HLXg1875WchLhmCgCd8Ycoz06++Z+qvH7zx0kdu+d1JXzoq3OTb0dGRupu7wFEP6N/31z856Zarzt19l/ettaoQEv3pr68IxY791KGH7jtp3Iajv/K/h3/ry5+OTnzgkVlROo/EgkWL/3b7feHEF15+5e4HHutpDW3t7V2fstYCXZ8e49EuehJuje/duym0Fab+sP33iLFRVREgQIAAAQIVIiA0WSEToRsECBAgQIAAAQI5BOYvfP34U3+eOnDmd758wrFTogcOhsdKfu3oI39/3qn9+vbJcWZeWZN222nbrTbtThTsJ+f/PuyODI3s9aFdoqa++rkjPnP4fqmP4TbzKD+PxO+u+VtLa2vqxN/86YYe1RCCfR/Y/3OpyGbOE9daIOdZxcjsuifhkZ2P3Hz5BWd8Y8bff7vNlpsUowPqJECAAAECBMor4Ibu8vprnQABAgQIECBAoCuBabfeu/Sd+7i3G7/pkQfleNTgByduf9UFPzjqK98Lr6PpqqKeHFtn6KCui4ctnA/MeHdTZHjMZXrhH/3fFz+2/+Twlp6uX56Tfkp2Orzq5w/X/T3Kv+2eh/49b2G4QzzK6ToRgpKvzF8URTazC6+1QPYpRcpZa0+GDR18yD4fLlLrqiVAgAABAgTKLmDXZNmnQAcIECBAgAABAgQ6FYhuix6+zpDOCk3cceuwfbKzo3nkNzY2dH3WY088E92G3Lfve16fHR4KufP24wuJS4am/3rL/2/vPuDsqOrFgWezm15IIZ1AkCAkj0cJSBHpIiUgCIhKEXwGUNS/5aEooAiCoiCgPhSkg4AUKUIIVQSkRRIgQBLSCAnpvdfd/R8YnAz3brbe3Vvmu+4nnjlz5pTv2Wwuvzkz5/nkI+rRyytr71J8NryF88rr7owPsxN1Fsi+pJlyCqcnzTRA1RIgQIAAAQJ1CghN1kmkAAECBAgQIECAQN4EJk+bGbUd9miOtsGpsStf+cLnwusIazzViMyw93ftVy1cvCwuELblidO5Stx41wcb4CS/7nrgiRDIS+ZsLn3OxX94Z+qMzZ0N+XUWqOXa3J4qnJ7kdlxqI0CAAAECBOovIDRZfyslCRAgQIAAAQIEWlrgE9sMiJoMzzhfePn1m3tIufsWXXbK3bsI69wOe8nS5TFEnUss45L1TIx9853X354cCt9/42VhZ57oqsVLlz/0xPN11nDNzffdN/IftRSrs0At1+b2VOH0JLfjUhsBAgQIECDQIIHc3+NtUPMKEyBAgAABAgQIEKhFYJ/d/zvs0B0VCEG32fMWXH/FeSEQmX3J7jvvuHbd+uz8KCdseH3/qH+OGz/lzYlTFy1Ztv22A4duP+jEz3922H/vsLlLsvNDT2bMmhfyn33ptfjsLXePjPfhOWCf3ULN8anGJW7668Phwr2H7RS+w4Y8t977aFTPLXc/8sWjDt5cneGNnBf85rr7H/1nXOCxZ16Onwo/8uBPd+zQrvYC/ftuGV9bf66wPXrQuO2+R1989c2rL/r+4QftHR51//vjz935wBOTps3ovWWPsE1QeFnkDtttHVdeZ1fjnmysrHzin6/cdt+o19+aFPY7+tSuQ+NK4kSIWYcXkoZH4KfPnLNs+cqt+vfebadPhu+DPr17t5p+ThrR4bgtCQIECBAgQCDnAkKTOSdVIQECBAgQIECAQM4E9ttrl2RdIf6137Fn/eQ7p33l2M+1bl2WPHXxD89MHibTTz43+vsXXh0WHrZt2yY8rL16zdpX35gQvu+4//Fvnnb8D795cj0fBr/2tgfid1/G9f/qD7fG6UvOPauJocn5i5aEQFuo8OsnHR3+PP1LR8WhydfemvTG+Mm7DN0+bi6Z+NI3L3hzwtRkzkOPPxe+o5ywhc5V199Ve4E4IFhProWLl9790FNhu5733p8btbJq9ZrQ/2/86NexUoiNvv3OtBvufOhvN1y285DBUbE6uxp6ErbxCbMTHmOft3BxdNWateuiRPLPMIln/uiysI17yOzSqWO7dm3HjJsYvsPhgL69br7qgrDfely+0R2Oa5AgQIAAAQIEci4gNJlzUhUSIECAAAECBAjkTCDsJ3Put0799TW3xzWGCOMPf/GHv/ztsUt//I36rHm88s93XfGnO9q1bRtil6edeGSoJ2yu/b0Lr54zb2FY3/d/N99b3ar6/P93elx/LYmffOercz6MgoV9pcMyvajklRd+t+N/HruuT39qqT+cuv2+UWEZYAirHX7QPuEwLDb89B7/HQKy0VVhheZVF32vxhou+dFZS5etfG/W3J9d/ueowNe/8vn999o1Sn9q1yF1FohK1p/rM8ectXzlqmRnZs9beNSp/xs2Ew+ZYduiJcuWhw18QnrV6rU//c2fH7r5N1HhOnuyfMWqfY4aEZZMJivPTo98+oWzf3J54ApKV1/8/ShoO27ClK//4NIQ2Qzfnz/9h4HrmMP2j65tdIezm5ZDgAABAgQI5EpAaDJXkuohQIAAAQIECBBoFoGw+3Z4jPquB59I1h7WDx592jnHHXnged85rV+fTU8iJ8uE9MQp71113V0hcfXFm0JU++21661X//TY/zk3LJ8Mp6677YHjjjhwyPaDQrr2r/iB4hCDi0OTR39uv/iNkLVfXufZEGW7/d5RodjpJw4vb/3RS+HDwsk4NPngY8/97Adfr/F59qhvU6a/H7fyqV2GHHrAnpsOP3waupYCoWSDuMKrMHv22OLyP95x5wOPR62EBaSh2z88+5Tjjzxo6wF9wqydcMZPokjlv18f/+6M2dtu3T+UrLOroczDt10RpjXEoJ98dnRUecafs+cu/MGFvwtiAf/u6y7t3bN7VCCszXz41isOP+l7Yf1meMA/xC4HDewXRS0b3eGMph0SIECAAAECORSwDU4OMVVFgAABAgQIECDQLAK/vuBb3zvjy3G0LmojvDTwbyOf+cyxZ4VFkZt7y+SFV1wflkbu+6md46Vz0bXhOd8vH3NolA6r826864PXO+b965Gn/hUCau3btT35uMPizoS3N/bt3TM6XLd+fUaINi6Wk0SDuMKC1j5b9gjR4bjprl063XHNRd8/48shLhkyw5/f+OoX4rPhLZ9xus5ECCaGaOPwQ/bdXMmf/OqPK1atDmdPO3F4HJeMCgeuM089NkqHH5KLr7wxSjdrh6Mm/EmAAAECBAg0VEBosqFiyhMgQIAAAQIECLS0QHhB5I/OPuXvt16RfHVg1InwCsLwDPJnv/SdsLF1RrfCSr3nX3k9ZO6w3Tbh8e2M7x7du8bl35n6XpzOY+Kmux4JrR8//KDk/i1h7KeecETcq/DEd/SUdJyTq0TjuJJLOH/+gxH7771bsj9hF6P4cOnylXG6noke3TbNUfKSsB7zqef/HeUc8plPJU9F6a+ecOQWXTtH6ZfGvPWPF16NyzRrh+NWJAgQIECAAIF6Cnigu55QihEgQIAAAQIECORZIGy7/NgdV99x/2OX/d9tS5atSPZm2nuzvnjmeeFthsnY5YQpHwUcw57X0bbXyUuS6cnvzkwe5iX9+tuTx7z5wf4t//PlDzbASX6dctzhV1//1/DwcsgMe86EQFvY9jpZICfpxnEldxBKpqMuJeO/0ePzDepq2LWoxvL3Pvx0WA4ZnQo7rWeX6dypw8lfOOyPt/4tOhWeiD943z2idLKTyXR0tokdzu6JHAIECBAgQKB2gZr/sa/9GmcJECBAgAABAgQI5EUg7ModlhB+/nP7XXHtnbfeMzK5U0pYPnna934x6o6r4sd7350xK+rkEQfvc+A+w2rpcMcO7Ws529BTYYfoaTNmb+6q/fbcJX5AO1nmpg8fKg+7x6xYuXr0a+OTp0J6mwF949dEhs1wmiM02TiujKfsM7rduWPHOCcOJsY5dSYqKmr+r5VXx02Iri0rKwtPkddYz47bbxPnT562KfTcrB2OW5QgQIAAAQIE6ilQ8z/29bxYMQIECBAgQIAAAQItLxCe1f3Fj8786hePOO9Xf3rh3+PiDoRHti+8/Po/XfajKCeOD4bllslnouPyzZQIi/VG/eOlzVV+zS/P+cIRB2acXbBo6UNPPBcyFy1Zduz/fNT/jDLx4TMvjpn+/pxBW/WLc3KSaBxXWeuyWlovq+1kLdd9dCpEHmssNHP2B5uAh68Q7gyvGe3Qvl10mPxzq36948Pkqthm7XDcogQBAgQIECBQTwGhyXpCKUaAAAECBAgQIJAHgWdfeq2yqjJ+GjfZg+23HXjvn3/5p9vu/8VVN8X5yUjlvPmLo/zwEHRcoDATf7n/sfC89gcbvxy62Y1fQrhz7vxFof8hHnfbPY+GrbpzO5Yi4lq8dHk89mASbfwd50SJZGiyEQs2M2pzSIAAAQIECDSTgNBkM8GqlgABAgQIECBAIAcCYdPq8CBzjaHJqPZvfvW48AR0eBVjdLhw8dJQfvCgrcJheG563IQpIRF2yAnBqc0twQsFaj8b1Vz/P/v13nJg/w+2qK7xK7nFTVRgw8aNt937aEifcfIx3/raCTVeFTK37t/3oitviM7+9e9P/ehbp4a9vDdXuBH5+eJqRFcH9O219D8vG52zmdBkeDQ+rjmUj9MSBAgQIECAQEEJ2KG7oKZDZwgQIECAAAECBDIFXntr0vr1GzJzE8dh8+7tPoxFRnlhS5woEQUoQ3rC5OkPP/GvxBUfS4aFlsMOOy2HC+suOfesV0beuLnvgz69+8eab9Xq0adfnLdgcYgznnTcYRmnkodfPuaz8ZPLITD34Khnk2ebns4XVyN6Hnc1XPv6W5NqrGHJ0k0bJSV/PGosLJMAAQIECBDIl4DQZL7ktUuAAAECBAgQIFAvgRCXfPjJzQYWoyo+86md47oGDfzoJYyf2KZ/nBk29Y52uI5z4sSV193Zr3fPWtZUxiWbKXHDHX8PNR935EHdt+hSSxPhDZvJl1TedPcjtRQOp6rD/2r9yiiQR66MntTa6w9O7jh40xY3d//9qRrLz1+0JM4ffsin47QEAQIECBAgUFACQpMFNR06Q4AAAQIECBAgUINAeKFkeOq5hhP/yVq9Zm2U7NWz2yc/sXWU3nO3/4q3Yw77xpz4jfPDbjP/ueKj/7/yz3e9NOatww/aJ5mfXEGZTMdlNiY6s279+ji/EYmwZnPMmxPDhaefeGSdl596wuFxmbcmTg0v4owPsxMrV63JzkzmZBRoJFci/pkdYaxOnk0eJPvRqlVGT+KTSfzk1V/5wufiBaRhi5uwrja+JE68/c60KN1nyx777rlLnJ8M2Da6w5tqkyJAgAABAgSaJiA02TQ/VxMgQIAAAQIECDS/wPhJ75576TVVVYlAV6LRWXMXPPHc6Cjj85/bPz4THvs95fhNsbxXxr59+Mnf+8vfHps0bUaIJ4bQ3rfOu+KKP93RpVPHLx51cHxVSKxbt+n58Rojj6tWfxQJDYWXLV+ZvLah6egtmeFliDvtuF2d1+4ydPvks8lXXX9XxiWdOrSPc8Jj7FH6kt/d/KNL/i9K11KgcVzhRZ9xi9nrUsMWRvHZsJV2nA6JWnoSF1u7bl2cTk5E2C/o61/5fHwqvIIzu+mb/vpwVOC8754eR6hDTqM7HDcnQYAAAQIECORQwDY4OcRUFQECBAgQIECAQHMJ/PXBJ6fPmHP5T7+djM2FxqbPnHPWuZdF8cEh2w86/7unJ3sQ9op56InnN22ZMm9hHKSLi110zhn9+mwZH4ZEWGIZH2bv7h2W8o1+7e24QNhjp8YdouMCtSRuv29UtKV4/WsIz55Pnf5+VOfo18bfeNffk0G6Ht27tmlTEcXpPtj1e+PGtWvX3fvIP35zwbejS2ov0AiuaTM+erNnqH/23IUZgw2zE+fMnDUvTodE7T2JSiYvn/Hxy791+vGjnnkpoggO/3vR739/yQ/i+q+9/YEoMrv/3rtlxJ0b3eG4cgkCBAgQIEAghwLlP//5z3NYnaoIpE3g6SmZqxUO2f6k5kYYOXJk3MTwA4fFaQkCBAgQIFB6Ak8+N/rNCVOjcb0/Z/4t94x8YfS4OfMXvvXOtNGvjw9LIM/95TVz5i0KBULI8uarLggPdCcRwmO/e+w85J8vjV21uuanm796whHfO/PL8SUh/vXiq2/+4uqb1qz9aL1eiDxuv+3A8orybl27hOeOQ7u/vfbOEBSLLwkFBvbvHRrauLGyY2LRYlygxsSYcRPDsr7fXndnZWVVKDBz9vwQTwzvu9yiS6ca993eWFk5bsLU+x/95x0PPJ6s8NmXxr489u1QSRh+m4qKivLyd6a8987UGaFMyBw3fkpYcLr3sJ1+/r8jyss/eF6q9gIN4grh4DCKS393y6Ily6IujZswOcRY27Vt06VLp8VLlj338uuX/u7muQsWR2cnTZ3RvVuX0IFePbuHkdbekxDlDLA/u/zP8US89vaksO95GGP3bl1DhUHp+CMPHPvmxPBTEQ7HT3738WdfWbB46bT3Zv/+xntuuPOD13ce8pk9rr/8vLZtPlqN0cQOR6PwJwECBAgQKDGBkc+OjUc0fPjwON1MiewoSlnyBS7N1KpqCZSwwHmjjs4Y3S+P+OjpoYz8HB6effbZcW1/vHBEnJYgQIAAAQKlJ/DDX/zhqef/Hfa8njt/0ZPP/fulV9/MfulkiFJ9d8SXzj7t+LBgsEaBEDv73s+uevpfrybPdurY/tfnf/u4Iw9MZp5wxk9CaDKZE6VDze+NfvAHF/0uLN7MPhvl9Oy+xZv/uGNzZzPydzv0q/MWfhSzS5765U++efqJNfxXwZx5C/c44mu1fHQfefuVu+30yVBVeO3mad+9OFqMGSKAXzjigF+dd3Z4aD1upc4C9eT62vcvefyfL8fVxonQ6JjHbvnGj38dFjPGmXEiPFv9zr/uiWK4tfTkkBO/HT+QHl8bEmEDnH/ce02cE+K55//62r8//vzylavizJDo33fLEScdc8bJxyQf5W56h5NNSBMgQIAAgdIQOPuiG+KB/PGPf4zTzZTIjqIITTYTtWrTIpD9l0poMi1zb5wECBAg0CICjz79YnhHYRxADBGoEJ2c+t6sxUuXV1dVbzdoQFjSuMPgbbp27lRnd8Ilr7896a2J0zp36rDzkMH/tcMn4q1U6ry26AqESG5QGrztVmETmBo7X2eBFuOqsyc19j+ZGV5CGjbDGTNuQlg/G4KSgwb2/9SuQ8KqzGQZaQIECBAgQKBGgbyHJmu+sVxjX2USIECAAAECBAgQaGGBIw/5dLLFEII87MC9kzn1T/fo1vXgffcI3/W/pHhL9u3dM3zX0v86C7QYV509qWUU0anWrct22G7r8F1nSQUIECBAgACBQhOwQ3ehzYj+ECBAgAABAgQIECBAgAABAgQIEEiFgNBkKqbZIAkQIECAAAECBAgQIECAAAECBAgUmoDQZKHNiP4QIECAAAECBAgQIECAAAECBAgQSIWA0GQqptkgCRAgQIAAAQIECBAgQIAAAQIECBSagNBkoc2I/hAgQIAAAQIECBAgQIAAAQIECBBIhYDQZCqm2SAJECBAgAABAgQIECBAgAABAgQIFJqA0GShzYj+ECBAgAABAgQIECBAgAABAgQIEEiFgNBkKqbZIAkQIECAAAECBAgQIECAAAECBAgUmoDQZKHNiP4QIECAAAECBAgQIECAAAECBAgQSIWA0GQqptkgCRAgQIAAAQIECBAgQIAAAQIECBSagNBkoc2I/hAgQIAAAQIECBAgQIAAAQIECBBIhYDQZCqm2SAJECBAgAABAgQIECBAgAABAgQIFJqA0GShzYj+ECBAgAABAgQIECBAgAABAgQIEEiFgNBkKqbZIAkQIECAAAECBAgQIECAAAECBAgUmoDQZKHNiP4QIECAAAECBAgQIECAAAECBAgQSIWA0GQqptkgCRAgQIAAAQIECBAgQIAAAQIECBSagNBkoc2I/hAgQIAAAQIECBAgQIAAAQIECBBIhYDQZCqm2SAJECBAgAABAgQIECBAgAABAgQIFJqA0GShzYj+ECBAgAABAgQIECBAgAABAgQIEEiFgNBkKqbZIAkQIECAAAECBAgQIECAAAECBAgUmoDQZKHNiP4QIECAAAECBAgQIECAAAECBAgQSIWA0GQqptkgCRAgQIAAAQIECBAgQIAAAQIECBSagNBkoc2I/hAgQIAAAQIECBAgQIAAAQIECBBIhYDQZCqm2SAJECBAgAABAgQIECBAgAABAgQIFJqA0GShzYj+ECBAgAABAgQIECBAgAABAgQIEEiFgNBkKqbZIAkQIECAAAECBAgQIECAAAECBAgUmoDQZKHNiP4QIECAAAECBAgQIECAAAECBAgQSIWA0GQqptkgCRAgQIAAAQIECBAgQIAAAQIECBSagNBkoc2I/hAgQIAAAQIECBAgQIAAAQIECBBIhYDQZCqm2SAJECBAgAABAgQIECBAgAABAgQIFJqA0GShzYj+ECBAgAABAgQIECBAgAABAgQIEEiFgNBkKqbZIAkQIECAAAECBAgQIECAAAECBAgUmoDQZKHNiP4QIECAAAECBAgQIECAAAECBAgQSIWA0GQqptkgCRAgQIAAAQIECBAgQIAAAQIECBSagNBkoc2I/hAgQIAAAQIECBAgQIAAAQIECBBIhYDQZCqm2SAJECBAgAABAgQIECBAgAABAgQIFJqA0GShzYj+ECBAgAABAgQIECBAgAABAgQIEEiFgNBkKqbZIAkQIECAAAECBAgQIECAAAECBAgUmoDQZKHNiP4QqFugdetNf3M3VlbWfYESBAgQIECAAAECBAgQIECAAIGPCyRDCuXl5R8/2UJHmwIcLdSgZggQaLJAu3bt4jrWb9gYpyUIECBAgAABAgQIECBAgAABAvUUWLd+U0ghGWqo5+U5KSY0mRNGlRBoUYH27dvH7a1Zuz5OSxAgQIAAAQIECBAgQIAAAQIE6imwdt2mkILQZD3RFCNAoFWPHj1ihcXLVsZpCQIECBAgQIAAAQIECBAgQIBAPQUWLd0UUkiGGup5eU6KWTWZE0aVEGhRgd69e8ftLVi8PE5LECBAgAABAgQIECBAgAABAgTqKbBwyaaQQp8+fep5VW6LCU3m1lNtBFpCoF+/fnEzU2fMi9MSBAgQIECAAAECBAgQIECAAIF6Ckx5b25csm/fvnG6JRNCky2prS0CuREYPHhwXNGEabOqq6vjQwkCBAgQIECAAAECBAgQIECAQJ0CIZgQQgpxsWSoIc5sgYTQZAsga4JAjgUGDhzYtm3bqNKly1fNXbg0xw2ojgABAgQIECBAgAABAgQIEChpgRBMWLZidTTEEGQIoYa8DFdoMi/sGiXQJIHy8vKddtoprmLC1E13OeJMCQIECBAgQIAAAQIECBAgQIDA5gSSwYQQZAihhs2VbNZ8oclm5VU5geYS2HPPPeOqXxj7jme6Yw0JAgQIECBAgAABAgQIECBAoHaBqqrqEEyIyySDDHFmyySEJlvGWSsEciwwdOjQbt26RZXOWbBk7Ph3c9yA6ggQIECAAAECBAgQIECAAIESFRg7floIJkSDC+GFEGTI10CFJvMlr10CTRKoqKgYPnx4XMXIf44NdzziQwkCBAgQIECAAAECBAgQIECAQI0CIYAQwgjxqRBeCEGG+LCFE0KTLQyuOQI5E9h777179eoVVRdeXvvvN6fkrGoVESBAgAABAgQIECBAgAABAiUqMPrNKfMWLYsG17t37xBeyONAhSbziK9pAk0SCG+oPfroo+Mq7h71YvybJc6UIECAAAECBAgQIECAAAECBAjEAmFt0z2jXowPjzrqqHxtgBP1QWgyngsJAsUnsPvuuw8cODDq99p1G66964k1a9cX3zD0mAABAgQIECBAgAABAgQIEGh+gRA0uO6vT4YAQtRUCCmEwELzN1tbC0KTtek4R6DABcrKyr7+9a936NAh6mdYNXnz/c946WSBz5ruESBAgAABAgQIECBAgACBlhcI4YIQNIgfuOzYseOIESNCYKHle5JsUWgyqSFNoPgEwlshkr9K3po889q/WjtZfPOoxwQIECBAgAABAgQIECBAoPkEwnrJEC4IQYOoidatW4dgQryDRfO1W2fNQpN1EilAoNAFhgwZcvzxx8e9DL9ofnPDQ/FtkDhfggABAgQIECBAgAABAgQIEEihQHi/5K9veCiOSwaBEEbYcccdC4FCaLIQZkEfCDRV4KCDDjrggAPiWkJc8tfXP/jyG5M93B2bSBAgQIAAAQIECBAgQIAAgbQJhLBACA6EBUzz/7MldxAIAYQDDzywQCgqCqQfukGAQFMEwrshTjzxxPBw93333VddXR2qCi+1ve3BZ5/41xvDDxw2bOi2eX95RFNG51oCBAgQIECAAAECBAgQIECgQQIhODDm7WmPPvtaWDIZXxiCAyeccEKISxZOlEBoMp4dCQLFLRB+rYS1k3379r3hhhvWrFkTDSb8Arrxvn882qv7vsN2GLLdgL5bdiuc3z7Fza33BAgQIECAAAECBAgQIECg8ARCRDKEAiZMnfXC2HfmLFiS7GDY9yZspRteCpfMzHtaaDLvU6ADBHIpEH7FnHvuuTfeeOPMmR+92jbUHn4Z3ff4yyHRrWunIZ8YsN3Wfbbs3rVnt87t27Vt17aiorw8lz1QF4F0CFRWVoWBlpd7L0o65tsoCRAgQIAAgWIW8MmtmGdP3+sQ2FhZuW79xrXr1i9aunLhkuVT3ps7YdqsZStWZ182cODAEJcMT1tmn8pvjtBkfv21TiD3AuEXzY9//OMxY8Y8/PDDCxYsSDawdPmql16fFL6TmdIECDRCYP369eGqtm3bNuJalxAgQIAAAQIECLSkgE9uLamtrQIUCFGCo48+etiwYYX5GKXQZAH+zOgSgaYKhF83e+yxx2677fbyyy+PHDly6dJN75VoatWuJ0CgVavwiMTatWuDRJs2bQrzX3ezRIAAAQIECBAgEAn45OYnIc0C3bp1Gz58+N57711ewI9LCk2m+UfU2EtcIPzq2Xfffffaa6/x48ePHj36rbfeiu4WlviwDY9A8wts2LChquqDB7pDwsLJ5vfWAgECBAgQIECg8QI+uTXezpVFKxD+I2WnnXbac889hw4dWlFR6KG/Qu9f0f4Y6DiBQhEIv4Z2/vCrsrIyvIByypQpc+fOnTdv3uLFi9d9+BXyC6Wv+kGgGATiG++hs2HtpIWTxTBp+kiAAAECBAikVMAnt5ROfJqGHdYktfvwq0ePHn369Alb4w4ePDi8VrKQl0lmzI/QZAaIQwIlKxB+MQ368KtkR2hgBFpE4Lnnnrv22mujpsLayZNOOmm//fZrkZY1QoAAAQIECBAg0DABn9wa5qU0gXwI2Fo0H+raJECAAIHiFAirjB944IFk3++//35Lj5Mg0gQIECBAgACBAhHwya1AJkI3CNQuIDRZu4+zBAgQIEBgk8ALL7wQ3oew6bhVq3D44osvJnOkCRAgQIAAAQIECkHAJ7dCmAV9IFCngNBknUQKECBAgACBDwSyb7xHLhZO+vkgQIAAAQIECBSagE9uhTYj+kNgcwJCk5uTkU+gXgLlZZkvbK2s2livKxUiQKDYBLJvvEcjsHCy2GZSfwkQIECAAIHSF/DJrfTn2AiLUGBj1YaMXpe3rhCazDBxSKBhAm0rOmRcsK5yTUaOQwIESkBgczfeo6FZOFkCU2wIBAgQIECAQMkI+ORWMlNpICUmsG5jZsCkXXkHockSm2XDaWmB9hUdM5pcvX55Ro5DAgRKQGBzN96joVk4WQJTbAgECBAgQIBAyQj45FYyU2kgJSawZsOKjBG1q+goNJlh4pBAwwR6dOybccHi1XMzchwSIFDsArXfeI9GZ+Fksc+y/hMgQIAAAQKlIeCTW2nMo1GUpMCi1XMyxtWzYz+hyQwThwQaJtC788CMC+aumJ6R45AAgWIXqP3GezQ6CyeLfZb1nwABAgQIECgNAZ/cSmMejaIkBbIDJr06DxSaLMm5NqiWE+jX9RMZjU1aMCYjxyEBAkUtUJ8b79EALZws6onWeQIECBAgQKAEBHxyK4FJNIQSFsgOmPTruq3QZAnPuKG1hMB2PXfJaGb6krfXbliVkemQAIHiFajPjfdodGHhZChcvCPVcwIECBAgQIBAsQv45FbsM6j/JSywZsPK95aMzxjg4J67CE1mmDgk0DCB7h169+zUP3lNVXXVpIVjkznSBAgUr0D9b7xHY3zggQfCJcU7Xj0nQIAAAQIECBSvgE9uxTt3ep4GgckLx4aASXKkIZzSrUNvocmkiTSBxgjs3He/jMvemP1sRo5DAgSKVKD+N96jAVo4WaQTrdsECBAgQIBACQj45FYCk2gIJSzwxuznMka3S7/9Q47QZAaLQwINFth9q0Myrpkw/5X3l03OyHRIgEDRCTT0xns0QAsni26idZgAAQIECBAoAQGf3EpgEg2hhAXeXzYphEoyBjhswAfhFKHJDBaHBBos0KNjv0/22j3jssffuTUjxyEBAkUn0NAb79EALZwsuonWYQIECBAgQKAEBHxyK4FJNIQSFsgOkoRASo+OfcOQhSZLeN4NreUEDt/h9LJWZcn2pi56Y8qi15M50gQIFJdA4268R2O0cLK45lpvCRAgQIAAgWIX8Mmt2GdQ/0tbIIRHpi4alxxjCKGEQEqUIzSZlJEm0EiBvl0G7Tbg4IyL73/zD6vWL8vIdEiAQLEINO7GezQ6CyeLZZb1kwABAgQIECgNAZ/cSmMejaIkBVauX3b/m7/PGNqwrQ4JgZQoU2gyA8chgUYKHPrJU9qUt01evHTN/Dtfu6yyamMyU5oAgaIQaMqN92iAFk4WxUTrJAECBAgQIFACAj65lcAkGkKpCoSQyJ1jf7V0zYLkAEPw5NDtT4lzhCZjCgkCTRLYov2Wnxl0bEYV7y5+65EJf87IdEiAQOELNOXGezQ6CycLf5b1kAABAgQIECgNAZ/cSmMejaIkBR4ef930JW9nDC0ET7q27xlnCk3GFBIEmipw0OAvDey2Q0Ytr8wY9eBb11g7mcHikEAhCzT9xns0OgsnC3mW9Y0AAQIECBAoDQGf3EpjHo2i9ARCGCQEQ0bPfCxjaFt32zEET5KZQpNJDWkCTRKoaN321GEXhOWTGbWEv4o3jr7AeyczWBwSKFiBpt94j4Zm4WTBTrGOESBAgAABAiUj4JNbyUylgZSSQHi/ZAiDZMclu3Xodcqw80PwJDlYocmkhjSBpgp0btftq3v8rG15+4yKwgLma178vj27M1gcEihAgVzdeI+GZuFkAU6xLhEgQIAAAQIlI+CTW8lMpYGUkkAIffzxxe9nP8cdQiWn7v7TEDbJGKzQZAaIQwJNFejXZdsTd/nfslZlGRWF177eNPqn4b7B+8smZZxySIBA4Qjk6sZ7NCILJwtnZvWEAAECBAgQKD0Bn9xKb06NqKgFQrjjxtHnh9BHxr43YVAhSHLiLueEgEn2AMuqq6uzc+UQINBEgfHzXr7njd+ur1xbYz1Deu+1S//9t99yWIc2nWssIJMAgbwIhBvv55xzTogn5rD1Pn36XHHFFeXl5TmsU1UECBAgQIAAAQI+ufkZIFAgAms2rJy8cOzrs5+dOH90jV0K6yVDXHJon71qPFtRY65MAgSaKDC0z95n7fOb2169eNnahdlVTZj/SvhuXdZ6m+5DP9lr975dBvXs2K9Dmy7tKjpUtG6TXV4OAQItIzBmzJhVq1aFtjp27Ni6dQ0PFqxcubLGnnTuXMNthqqqqtWrV4cKQ7V77rlnjRfKJECAAAECBAgQaJyAT26Nc3MVgSYKbKzasG7jmjUbVixaPWfuiumTFox5b8n4quqqzVUb3i8ZnuOucb1kdIlVk5ujk08gBwIr1y39y9hLZyydmIO6VEGAAAECBAgQIECAAAEC9RaYfnuXGssOOnVFjfkyCRDIucDW3Yecstt52e+XTDZUw5KQ5GlpAgSaIhD++o3Y69KDtjuxTfnH9p9qSp2uJUCAAAECBAgQIECAAAECBAgUskAIg4RgyIg9L6k9LhmGYNVkIc+jvpWOQHis+6nJd4x9/+nqVt7uWjrTaiQECBAgQIAAAQIECBSsgFWTBTs1OlbaAmHHm2FbffbQ7U/u2r5nfUYqNFkfJWUI5EYgvIXhsXduCS9iyE11aiFAgAABAgQIECBAgACBzQgITW4GRjaBZhQI22kcvsPpYUeN+rchNFl/KyUJ5EZg8eo5Y95/etzc5xetmp2bGtVCgAABAgQIECBAgAABAh8XEJr8uIcjAs0o0LNT/1367T9swCE9OvZtaDNCkw0VU55AzgSWrpk/ZdEbc5a/u2DlzLCz1bqNq9dVrqms2pizBlREgAABAgQIECBAgACBtAoITaZ15o27eQXKW1e0K+/QrqJjz479enUe2K/rtoN77tKtQ+9Gtyo02Wg6FxIgQIBA6gROOumkGsd855131pgvkwABAgQIECBAIF8CPrnlS167BBokYIfuBnEpTIAAAQIECBAgQIAAAQIECBAgQIBAbgSEJnPjqBYCBAgQIECAAAECBAgQIECAAAECBBokIDTZIC6FCRAgQIAAAQIECBAgQIAAAQIECBDIjYDQZG4c1UKAAAECBAgQIECAAAECBAgQIECAQIMEhCYbxKUwAQIECBAgQIAAAQIECBAgQIAAAQK5ERCazI2jWggQIECAAAECBAgQIECAAAECBAgQaJCA0GSDuBQmQIAAAQIECBAgQIAAAQIECBAgQCA3AkKTuXFUCwECBAgQIECAAAECBAgQIECAAAECDRIQmmwQl8IECBAgQIAAAQIECBAgQIAAAQIECORGQGgyN45qIUCAAAECBAgQIECAAAECBAgQIECgQQJCkw3iUpgAAQIECBAgQIAAAQIECBAgQIAAgdwICE3mxlEtBAgQIECAAAECBAgQIECAAAECBAg0SKCsurq6QRcoTIAAAQIECBAgQIAAAQIECBAgQIAAgaYLWDXZdEM1ECBAgAABAgQIECBAgAABAgQIECDQYAGhyQaTuYAAAQIECBAgQIAAAQIECBAgQIAAgaYLCE023VANBAgQIECAAAECBAgQIECAAAECBAg0WEBossFkLiBAgAABAgQIECBAgAABAgQIECBAoOkCQpNNN1QDAQIECBAgQIAAAQIECBAgQIAAAQINFhCabDCZCwgQIECAAAECBAgQIECAAAECBAgQaLqA0GTTDdVAgAABAgQIECBAgAABAgQIECBAgECDBYQmG0zmAgIECBAgQIAAAQIECBAgQIAAAQIEmi4gNNl0QzUQIECAAAECBAgQIECAAAECBAgQINBgAaHJBpO5gAABAgQIECBAgAABAgQIECBAgACBpgsITTbdUA0ECBAgQIAAAQIECBAgQIAAAQIECDRYQGiywWQuIECAAAECBAgQIECAAAECBAgQIECg6QIVTa9CDQQIECBQu8BDDz20YMGC2ss4S4BAgQj06tXrmGOOKZDO6AYBAgQI5EvA57d8yWuXQIMEfHJrEFdhFrZqsjDnRa8IECgpAXHJkppOgyl1AX9hS32GjY8AAQL1EvDPQb2YFCKQbwF/VfM9Azlo36rJHCCqggABAvURGHJEv/oUK+oyE0bNCf030qKexIzOp2dOo4FH481AcEiAAAECqRXwqaY0pj6dn2fS89NbGj+laR6FVZNpnn1jJ0CAAAECBAgQIECAAAECBAgQIJA3AaHJvNFrmAABAgQIECBAgAABAgQIECBAgECaBYQm0zz7xk6AAAECBAgQIECAAAECBAgQIEAgbwJCk3mj1zABAgQIECBAgAABAgQIECBAgACBNAsITaZ59o2dAAECBAgQIECAAAECBAgQIECAQN4EhCbzRq9hAgQIECBAgAABAgQIECBAgAABAmkWEJpM8+wbOwECBAgQIECAAAECBAgQIECAAIG8CQhN5o1ewwQIECBAgAABAgQIECBAgAABAgTSLCA0mebZN3YCBAgQIECAAAECBAgQIECAAAECeRMQmswbvYYJECBAgAABAgQIECBAgAABAgQIpFlAaDLNs2/sBAgQIECAAAECBAgQIECAAAECBPImIDSZN3oNEyBAgAABAgQIECBAgAABAgQIEEizgNBkmmff2AkQIECAAAECBAgQIECAAAECBAjkTUBoMm/0GiZAgAABAgQIECBAgAABAgQIECCQZgGhyTTPvrETIECAAAECBAgQIECAAAECBAgQyJuA0GTe6DVMgAABAgQIECBAgAABAgQIECBAIM0CQpNpnn1jJ0CAAAECBAgQIECAAAECBAgQIJA3AaHJvNFrmAABAgQIECBAgAABAgQIECBAgECaBYQm0zz7xk6AAAECBAgQIECAAAECBAgQIEAgbwJCk3mj1zABAgQIECBAgAABAgQIECBAgACBNAsITaZ59o2dAAECBAgQIECAAAECBAgQIECAQN4EhCbzRq9hAgQIECBAgAABAgQIECBAgAABAmkWqEjz4I2dAAECBAgQIECAAAECBFpSYM6qiROXPFNni9ttsffWXXYLxSqrNz4/68bqVlU1XtK/09Aduh9Q4ymZBAgQIFAUAkKTRTFNOkmAAAECBAgQIECAAIFSEKiqrpy/eur8NVM3N5iubfts1Xmn8tZt/1OgOlyyYM20jEvalncMccnNhSz/c63/J0CAAIFCFxCaLPQZ0j8CBIKAu+t+DAgQIECAAAECpSEwoPN/femTV7y+4OHnZ99U44iOH3xp5zY941PlZW0OHnh2q1bVT838w4TFHy23DAsqDxn4rWSxuLwEAQIECBSXgNBkcc2X3hJIqYC76ymdeMMmQIAAAQIESlRg115HL1k3661Fj2ePb/ryV3fqeVhWflnnNr2izK277Hr0tue3LivPKiODAAECBIpPQGiy+OZMjwmkUMDd9RROuiETIECAAAECpS2wX/+vzVw5btm6ORnD/NfsW7bpMqxL248CkdHZ9ZWrJyz+R0j3bL/1Edv8UFwyA80hAQIEilfADt3FO3d6TiB1AuHuek230D9wCHfXa+LIvLvuqZ+alOQRIECAAAECBPIgUNG63ecGfresLPO/STdUrX36/WsyOvTMrOtWbljYoWKLo7e9ILxlMuOsQwIECBAoXoHMfwaKdyR6ToBAGgTC3fUt2vXLHmm4u75i/YKMfHfXM0AcEiBAgAABAgQKSqBvpx2G9To2u0szV7wxfvFTcf6ExU9PWvJceVnF8EE/zlhNGZeRIECAAIEiFRCaLNKJ020CKRVwdz2lE2/YBAgQIECAQIkK7NX3y+EZ7ezBPT/75pUbFoX8uasnPfP+dSFx0Fbf7Ndpx+yScggQIECgqAWEJot6+nSeQBoF3F1P46wbMwECBAgQIFCiAmED7kO3/m72uyPD4y/PvH9tiE4+Ov2yyuoNu/U6ZkiPg0vUwLAIECCQagGhyVRPv8ETKFIBd9eLdOJ0mwABAgQIECCQLdCrwyf27HNidn54mfjtE89etWHJoK6779v/tOwCcggQIECgBASEJktgEg2BQOoE3F1P3ZQbMAECBAgQIFDSArv3Pr53x8HZQ9xYtb5bu/6Hbf2DslZl2WflECBAgEAJCAhNlsAkGgKBNAq4u57GWTdmAgQIECBAoEQFwgPdhw78brj9nD2+jhXdbMmdzSKHAAECJSMgNFkyU2kgBFIn4O566qbcgAkQIECAAIHSFejRfqt9+p2cPb7Zq8a/ueix7Hw5BAgQIFAaAkKTpTGPRkEgjQLurqdx1o2ZAAECBAgQKF2BXXt9vn+nodnje2H2rcvXz8vOl0OAAAECJSAgNFkCk2gIBNIr4O56eufeyAkQIECAAIGSEwgvlAy7HWYPa0PV2qdm/qFVq+rsUzXmVFVXTlry3NzVk2o8K5MAAQIECkpAaLKgpkNnCBBosIC76w0mcwEBAgQIECBAoCAFQgjy+dk31di1WSvffmPhozWeSmaur1rz2oKHbp1w1uMzrgpPgidPSRMgQIBAYQoITRbmvOgVAQL1FXB3vb5SyhEgQIAAAQIEClqg+skZv1+4Znr3dgP6ddoxu6cvzrl96bo52flRzqoNi1+Yc9vN40f8a/YtKzcs2lwx+QQIECBQaAJCk4U2I/pDgEDDBNxdb5iX0gQIECBAgACBghQYPe+eqctealfe6ahtzz9imx+2K++c0c2NVeuemvn76poe6w5PcI+cftmajcval3fJuMohAQIECBS4gNBkgU+Q7hEgULuAu+u1+zhLgAABAgQIECgCgRCUfGXu3WVlrQ/f5pxu7fp1atPjgAFnZPd7zqqJ4Xnt7PywO+KJ2//mswO/c8CAEdln5RAgQIBAIQsITRby7OgbAQJ1CLi7XgeQ0wQIECBAgACBghcID3GHR7nDLjf79jtt6y67Rv3dofv+222xd3bfX55z55J1s7Lzo5y25Z02d0o+AQIECBSmgNBkYc6LXhEgULeAu+t1GylBgAABAgQIEChsgdUblz4y/ZfhFT07dj9wt16fT3b2oK2+0aGiazInpCurNzw543fV1VUZ+dFheAt5jfkyCRAgQKBgBYQmC3ZqdIwAgdoE3F2vTcc5AgQIECBAgEAxCISI5MPTLlmxfkHY+ubArc7K6HKHii0OHJCZGcrMWz351fn3ZRR2SIAAAQJFKiA0WaQTp9sEUi3g7nqqp9/gCRAgQIAAgZIQCOsfR02/fP6aqWE04TWRbVq3zx7W4G6frvGx7vBWn7mrJ2WXl0OAAAECRScgNFl0U6bDBNIu4O562n8CjJ8AAQIECBAofoF1lasemnbReyvGhqGE3W+27DBoc2Paq+9Xsk+FLblHTf9NWG6ZfUoOAQIECBSXgNBkcc2X3hJIu4C762n/CTB+AgQIECBAoMgFZqx47amZv79lwpmzVr4dDSW8OPKBqT97d/m/l66bE2KO8fjCDenZq8aPnf9gnJNMrNyw6L4pPxkz//41G5cn86UJECBAoLgEhCaLa770lkCqBdxdT/X0GzwBAgQIECBQEgKPvffbCYufWV+5Ojma8HT2I+/+8vaJZ4eAY5w/Z9WEv005f+KSZ+KcjEQo/OKc26cv/3dGvkMCBAgQKCKBiiLqq64SIJBagXB3fdLS56cueyX+FBvdXd+jzwnd223VtW3v1mXlEU64u75gzbS3Fz1Vo1V0d33nLY8c2uOz2Rs+1niJTAIECBAgQIAAgRwKnLnTX+pZ29ZddvvOLg/Us7BiBAgQIFCkAkKTRTpxuk0gXQLh7npYMpkx5ujuesg8bch1IToZnQ131x+adnFGyeRhdHe9Y8UWQ3ocksyXJkCAAAECBAgQKHaB6lbVm4aQSG7KlCJAgACBAhMQmiywCdEdAgRqEnB3vSYVeQQIECBAgAABAh8TqKxaHx+Hd5THaQkCBAgQKFgB75os2KnRMQIEWkjA3fUWgtYMAQIECBAgQKCZBWauHBe3MGtV2GbHysnYQ4IAAQIFKmDVZIFOjG4RINBiAu6utxi1hggQIECAAAECzSTwzPt/mrli3LL1c+P6Z65446bxIwZvsc/+A0bEmRIECBAgUGgCQpOFNiP6Q4BASwtk3F3/VKsTWrUqa+lOaI8AAQIECBAgQKAJAgdt9c0mXO1SAgQIEMibgNBk3ug1TIBA3gXcXc/7FOgAAQIECBAgQIAAAQIECKRZQGgyzbNv7ATSLuDuetp/AoyfAAECBAgQIECAAAECBPIqYBucvPJrnAABAgQIECBAgAABAgQIECBAgEBaBYQm0zrzxk2AAAECBAgQIECAAAECBAgQIEAgrwJCk3nl1zgBAgQIECBAgAABAgQIECBAgACBtAoITaZ15o2bAAECBAgQIECAAAECBAgQIECAQF4FhCbzyq9xAgQIECBAgAABAgQIECBAgAABAmkVEJpM68wbNwECBAgQIECAAAECBAgQIECAAIG8CghN5pVf4wQIECBAgAABAgQIECBAgAABAgTSKiA0mdaZN24CBAgQIECAAAECBAgQIECAAAECeRUQmswrv8YJECBAgAABAgQIECBAgAABAgQIpFVAaDKtM2/cBAgQIECAAAECBAgQIECAAAECBPIqIDSZV36NEyBAgAABAgQIECBAgAABAgQIEEirgNBkWmfeuAkQIECAAAECBAgQIECAAAECBAjkVUBoMq/8GidAgAABAgQIECBAgAABAgQIECCQVgGhybTOvHETIECAAAECBAgQIECAAAECBAgQyKuA0GRe+TVOgAABAgQIECBAgAABAgQIECBAIK0CQpNpnXnjJkCAAAECBAgQIECAAAECBAgQIJBXAaHJvPJrnAABAgQIECBAgAABAgQIECBAgEBaBYQm0zrzxk2AAAECBAgQIECAAAECBAgQIEAgrwJCk3nl1zgBAgQIECBAgAABAgQIECBAgACBtApUpHXgxk2AAAECBAgQIECAAAECBGoTmDBqTm2nS+hcGkaahjEmfyTTNt7k2KWLS8CqyeKaL70lQIAAAQIECBAgQIAAgWYX6NWrV7O3oQECBJos4K9qkwnzX0FZdXV1/nuhBwQIEChpgRtuuKGkx2dwBEpNYMSIEaU2JOMhQIAAAQIECBAgUJACVk0W5LToFAECpSXgVl5pzafRlLiAv7AlPsGGR4AAAQIECBAgUEgC/x8cWzWrkicWTAAAAABJRU5ErkJggg==;" vertex="1" parent="1">
          <mxGeometry x="-827" y="70" width="730.36" height="398" as="geometry" />
        </mxCell>
      </root>
    </mxGraphModel>
  </diagram>
</mxfile>
